<?xml version="1.0" encoding="UTF-8"?>
<svg version="1.1" xmlns="http://www.w3.org/2000/svg" width="192" height="192">
<path d="M0 0 C0.95132813 0.6084375 1.90265625 1.216875 2.8828125 1.84375 C3.84960938 2.4521875 4.81640625 3.060625 5.8125 3.6875 C6.89917969 4.50734375 6.89917969 4.50734375 8.0078125 5.34375 C8.0078125 6.00375 8.0078125 6.66375 8.0078125 7.34375 C7.24210937 7.68817139 7.24210937 7.68817139 6.4609375 8.03955078 C-24.87774753 22.25725651 -54.35347267 40.81473088 -80.890625 62.73828125 C-81.68726562 63.39183594 -82.48390625 64.04539062 -83.3046875 64.71875 C-83.94019531 65.26273437 -84.57570313 65.80671875 -85.23046875 66.3671875 C-86.9921875 67.34375 -86.9921875 67.34375 -88.88647461 67.05688477 C-91.14063019 66.29347741 -92.57698389 65.37314804 -94.4453125 63.91015625 C-95.3734375 63.1840918 -95.3734375 63.1840918 -96.3203125 62.44335938 C-96.95453125 61.93611328 -97.58875 61.42886719 -98.2421875 60.90625 C-98.891875 60.40287109 -99.5415625 59.89949219 -100.2109375 59.38085938 C-101.84693178 58.08684289 -103.4249905 56.72028533 -104.9921875 55.34375 C-104.9921875 54.68375 -104.9921875 54.02375 -104.9921875 53.34375 C-103.51782227 52.02197266 -103.51782227 52.02197266 -101.43359375 50.5078125 C-100.66450684 49.94457275 -99.89541992 49.38133301 -99.10302734 48.80102539 C-97.84159912 47.89404907 -97.84159912 47.89404907 -96.5546875 46.96875 C-95.6879541 46.34025146 -94.8212207 45.71175293 -93.92822266 45.06420898 C-92.13847147 43.76903301 -90.34645682 42.47697936 -88.55224609 41.18798828 C-86.29903458 39.56479929 -84.05950609 37.92505739 -81.82421875 36.27734375 C-65.01059807 24.00211464 -46.94558608 12.99067131 -27.9921875 4.34375 C-27.19490234 3.97072754 -26.39761719 3.59770508 -25.57617188 3.21337891 C-23.01694913 2.02377822 -20.44531012 0.86674701 -17.8671875 -0.28125 C-17.0726416 -0.64919678 -16.2780957 -1.01714355 -15.45947266 -1.39624023 C-9.0723994 -4.15079339 -6.10709732 -3.38042985 0 0 Z " fill="#E31837" transform="translate(183.9921875,81.65625)"/>
<path d="M0 0 C-0.33 0.99 -0.66 1.98 -1 3 C-3.66190178 4.10604484 -6.26699231 5.0413373 -9 5.9375 C-35.50791635 15.20673294 -59.43436113 29.48293812 -82 46 C-83.0837793 46.78963135 -83.0837793 46.78963135 -84.18945312 47.59521484 C-88.4708482 50.71508681 -92.74049163 53.85031986 -97 57 C-100.95778551 54.78364012 -104.79399739 52.58809551 -108.4375 49.875 C-109.11683594 49.37742188 -109.79617187 48.87984375 -110.49609375 48.3671875 C-110.99238281 47.91601562 -111.48867187 47.46484375 -112 47 C-112 46.34 -112 45.68 -112 45 C-110.61743164 43.75415039 -110.61743164 43.75415039 -108.66015625 42.34765625 C-107.93554199 41.82397461 -107.21092773 41.30029297 -106.46435547 40.76074219 C-105.67174316 40.20032227 -104.87913086 39.63990234 -104.0625 39.0625 C-103.2492627 38.48274414 -102.43602539 37.90298828 -101.59814453 37.30566406 C-88.53077274 28.05814114 -75.11649505 19.55362478 -61 12 C-60.36803711 11.6587207 -59.73607422 11.31744141 -59.08496094 10.96582031 C-47.79643257 4.91942762 -36.04386789 0.31756243 -24 -4 C-22.30810547 -4.60908203 -22.30810547 -4.60908203 -20.58203125 -5.23046875 C-13.24135869 -7.41823349 -6.45238153 -3.16201699 0 0 Z " fill="#E31837" transform="translate(162,69)"/>
<path d="M0 0 C3.8429677 1.62587095 7.55332163 3.44221892 11.25 5.375 C11.25 6.035 11.25 6.695 11.25 7.375 C10.13625 7.96925781 9.0225 8.56351563 7.875 9.17578125 C-2.82218944 14.9569612 -12.88682415 21.27105361 -22.75 28.375 C-23.33023926 28.79152832 -23.91047852 29.20805664 -24.50830078 29.63720703 C-27.60389945 31.8634876 -30.67911705 34.11448894 -33.75 36.375 C-38.37 34.065 -42.99 31.755 -47.75 29.375 C-46.57364317 25.8459295 -45.74799904 25.41408082 -42.7265625 23.40625 C-41.87892334 22.8400293 -41.03128418 22.27380859 -40.15795898 21.69042969 C-39.23958252 21.09133789 -38.32120605 20.49224609 -37.375 19.875 C-36.43922119 19.25786133 -35.50344238 18.64072266 -34.53930664 18.00488281 C-25.49649208 12.09955753 -16.23827564 6.53709891 -6.75 1.375 C-6.0681665 0.98860352 -5.38633301 0.60220703 -4.68383789 0.20410156 C-2.75 -0.625 -2.75 -0.625 0 0 Z " fill="#012169" transform="translate(70.75,71.625)"/>
<path d="M0 0 C0 0.66 0 1.32 0 2 C-0.52094238 2.25990723 -1.04188477 2.51981445 -1.57861328 2.78759766 C-13.44353609 8.74977952 -24.80217076 15.17281171 -35.88916016 22.49072266 C-36.76233887 23.0635498 -37.63551758 23.63637695 -38.53515625 24.2265625 C-39.68576538 24.99347412 -39.68576538 24.99347412 -40.85961914 25.77587891 C-42.96980302 26.98272982 -44.59864674 27.66264553 -47 28 C-49.578125 27.00390625 -49.578125 27.00390625 -52.25 25.5625 C-53.14203125 25.08941406 -54.0340625 24.61632812 -54.953125 24.12890625 C-55.62859375 23.75636719 -56.3040625 23.38382813 -57 23 C-55.74517484 19.23552453 -54.63044454 18.9070135 -51.25 16.9609375 C-50.25685791 16.3841626 -49.26371582 15.8073877 -48.24047852 15.21313477 C-47.17112061 14.60655029 -46.1017627 13.99996582 -45 13.375 C-43.91452881 12.75488037 -42.82905762 12.13476074 -41.71069336 11.49584961 C-39.51156093 10.2444652 -37.30966194 8.99792971 -35.10498047 7.75634766 C-32.36908319 6.20877374 -29.65342392 4.63182202 -26.94140625 3.04296875 C-25.48289906 2.21415728 -24.02334605 1.38718206 -22.5625 0.5625 C-21.92119141 0.1794873 -21.27988281 -0.20352539 -20.61914062 -0.59814453 C-13.65565047 -4.4171267 -7.09352839 -2.72828015 0 0 Z " fill="#012169" transform="translate(57,66)"/>
<path d="M0 0 C1.67646018 0.59291076 3.35357686 1.18396763 5.03125 1.7734375 C17.83913384 6.34139381 17.83913384 6.34139381 23 9 C23 9.66 23 10.32 23 11 C19.03270166 13.95375497 14.98232493 16.449693 10 17 C3.86541968 15.90858777 -1.75202999 12.79657083 -7.34667969 10.16601562 C-11.70131122 8.2523498 -16.20165504 6.8738984 -20.75 5.5 C-21.57838379 5.24573242 -22.40676758 4.99146484 -23.26025391 4.72949219 C-25.17135606 4.14591839 -27.0853417 3.57179841 -29 3 C-29 2.34 -29 1.68 -29 1 C-18.07276996 -4.3205003 -11.50078154 -4.29960411 0 0 Z " fill="#E31837" transform="translate(86,55)"/>
<path d="M0 0 C1.19302734 0.40412109 2.38605469 0.80824219 3.61523438 1.22460938 C9.32397816 3.17618104 14.94242602 5.19414044 20.4375 7.6875 C20.4375 8.3475 20.4375 9.0075 20.4375 9.6875 C19.0668189 10.19922094 17.69065925 10.69627492 16.3125 11.1875 C15.16394531 11.60515625 15.16394531 11.60515625 13.9921875 12.03125 C8.08835803 13.54783005 4.0674588 12.39110355 -1.4375 10 C-6.9474719 7.6779305 -12.47451043 5.6421704 -18.1875 3.875 C-19.18112549 3.56526245 -19.18112549 3.56526245 -20.19482422 3.24926758 C-23.62560422 2.20334092 -27.03102199 1.31667137 -30.5625 0.6875 C-30.5625 0.0275 -30.5625 -0.6325 -30.5625 -1.3125 C-29.23532477 -1.8286237 -27.90023782 -2.32440647 -26.5625 -2.8125 C-25.82 -3.0909375 -25.0775 -3.369375 -24.3125 -3.65625 C-15.46504921 -5.76757348 -8.35180875 -2.91973802 0 0 Z " fill="#E31837" transform="translate(113.5625,48.3125)"/>
<path d="M0 0 C1.32 0.66 2.64 1.32 4 2 C3.67 3.32 3.34 4.64 3 6 C1.35 6 -0.3 6 -2 6 C-2.33 5.01 -2.66 4.02 -3 3 C-2.01 2.01 -1.02 1.02 0 0 Z " fill="#E31837" transform="translate(107,143)"/>
</svg>
