<?xml version="1.0" encoding="UTF-8"?>
<svg version="1.1" xmlns="http://www.w3.org/2000/svg" width="1024" height="1024">
<path d="M0 0 C337.92 0 675.84 0 1024 0 C1024 337.92 1024 675.84 1024 1024 C686.08 1024 348.16 1024 0 1024 C0 686.08 0 348.16 0 0 Z " fill="#FEFEFE" transform="translate(0,0)"/>
<path d="M0 0 C2.51740531 1.41653371 4.71278761 2.94071084 6.9921875 4.71484375 C51.60450811 37.60899481 105.73303746 53.41135671 160.4921875 57.40234375 C161.38848115 76.7749491 161.77559898 96.13587495 161.8046875 115.52734375 C161.80598537 116.2452861 161.80728325 116.96322845 161.80862045 117.70292664 C161.84144998 141.79804321 160.98056296 165.52710643 157.4921875 189.40234375 C157.39081482 190.10776306 157.28944214 190.81318237 157.18499756 191.53997803 C153.92339518 214.13375263 150.06519304 236.94698352 140.94921875 258.015625 C139.86987835 260.52444035 138.83008238 263.03526361 137.81640625 265.5703125 C126.72377982 293.06869137 111.81071566 317.90807437 92.4921875 340.40234375 C91.78449219 341.24023438 91.07679688 342.078125 90.34765625 342.94140625 C79.21526806 355.72059742 67.00638217 368.1544197 53.4921875 378.40234375 C52.49445313 379.19382812 51.49671875 379.9853125 50.46875 380.80078125 C34.91661062 393.1033621 16.40124602 407.20107055 -2.5078125 413.40234375 C-5.0078125 412.390625 -5.0078125 412.390625 -7.5078125 410.71484375 C-8.3328125 410.17472656 -9.1578125 409.63460938 -10.0078125 409.078125 C-10.8328125 408.52511719 -11.6578125 407.97210937 -12.5078125 407.40234375 C-13.89033203 406.87253906 -13.89033203 406.87253906 -15.30078125 406.33203125 C-17.5078125 404.40234375 -17.5078125 404.40234375 -17.90087891 402.29272461 C-18.00172216 399.58314384 -17.94249058 396.9234378 -17.8203125 394.21484375 C-17.78647461 392.80428711 -17.78647461 392.80428711 -17.75195312 391.36523438 C-17.69300477 389.04266902 -17.61079035 386.72330599 -17.5078125 384.40234375 C-13.2815475 385.9844078 -9.6836906 388.06524764 -5.88671875 390.4765625 C-2.68490529 391.72258843 -0.83629583 391.18245703 2.4921875 390.40234375 C5.22388879 389.09891645 5.22388879 389.09891645 7.87109375 387.375 C8.86858643 386.75254395 9.8660791 386.13008789 10.89379883 385.48876953 C12.45843872 384.48692627 12.45843872 384.48692627 14.0546875 383.46484375 C15.12936279 382.78405762 16.20403809 382.10327148 17.3112793 381.40185547 C25.0595502 376.4426339 32.39288424 371.24882879 39.4921875 365.40234375 C40.38035156 364.70367188 41.26851562 364.005 42.18359375 363.28515625 C56.62810703 351.8052374 70.0555113 338.87349572 81.4921875 324.40234375 C81.98525391 323.78568848 82.47832031 323.1690332 82.98632812 322.53369141 C91.39547765 311.98596348 98.81949404 301.12639856 105.4921875 289.40234375 C105.92128418 288.65259277 106.35038086 287.9028418 106.79248047 287.13037109 C113.56652963 275.15972079 118.79360837 262.79261877 123.55957031 249.90234375 C124.32911574 247.83947852 125.13617645 245.79064949 125.953125 243.74609375 C136.5992268 216.35102923 139.65539931 185.52231638 141.4921875 156.40234375 C141.58121338 155.1496167 141.67023926 153.89688965 141.76196289 152.60620117 C142.7645972 137.38320288 142.60869374 122.14058725 142.56085205 106.89331055 C142.55045346 103.21859321 142.54601973 99.54386856 142.54101562 95.86914062 C142.53042663 88.71352435 142.51345678 81.55793695 142.4921875 74.40234375 C141.61067017 74.33940125 140.72915283 74.27645874 139.82092285 74.21160889 C138.65863159 74.12598694 137.49634033 74.04036499 136.29882812 73.95214844 C135.14918579 73.86858093 133.99954346 73.78501343 132.81506348 73.69891357 C128.46336879 73.31052071 124.25989237 72.56524585 119.9921875 71.65234375 C118.71964111 71.38574951 118.71964111 71.38574951 117.42138672 71.11376953 C115.64931482 70.73811244 113.87830633 70.35740383 112.10839844 69.97167969 C110.41527235 69.6032241 108.7206734 69.24144627 107.02441406 68.88769531 C95.35251546 66.44452168 84.04678491 63.10528558 72.7421875 59.33984375 C72.09848206 59.12624207 71.45477661 58.91264038 70.79156494 58.69256592 C63.51150766 56.26463829 56.44273028 53.6594704 49.4921875 50.40234375 C49.8221875 55.02234375 50.1521875 59.64234375 50.4921875 64.40234375 C66.80453144 71.18569469 83.1379306 76.25039662 100.3671875 80.15234375 C101.02082275 80.30113983 101.67445801 80.44993591 102.34790039 80.60324097 C110.22612756 82.38509719 118.07859509 83.88728727 126.08251953 84.98144531 C128.4921875 85.40234375 128.4921875 85.40234375 129.4921875 86.40234375 C129.6074054 88.31735011 129.6518824 90.23663805 129.66918945 92.1550293 C129.68183838 93.39503189 129.6944873 94.63503448 129.70751953 95.91261292 C129.71565944 97.2880933 129.72329447 98.66357674 129.73046875 100.0390625 C129.73531281 100.73548796 129.74015686 101.43191341 129.74514771 102.14944267 C129.78187778 107.46290205 129.79749534 112.77626916 129.8046875 118.08984375 C129.80598537 118.86740776 129.80728325 119.64497177 129.80862045 120.44609833 C129.83939005 144.65044274 129.28742585 168.44587623 125.4921875 192.40234375 C125.31026855 193.60149414 125.12834961 194.80064453 124.94091797 196.03613281 C119.05422343 233.73412481 105.08599509 271.45904749 82.4921875 302.40234375 C82.09322266 302.95003418 81.69425781 303.49772461 81.28320312 304.06201172 C68.06179762 322.03652315 53.10453589 338.64436947 35.4921875 352.40234375 C34.68523437 353.06492187 33.87828125 353.7275 33.046875 354.41015625 C26.99692123 359.37072928 20.70878061 363.91836666 14.20068359 368.26025391 C13.03794324 369.03751875 11.87955153 369.82131972 10.72509766 370.61083984 C8.99313329 371.79040424 7.24593043 372.94298189 5.4921875 374.08984375 C4.4609375 374.77433594 3.4296875 375.45882813 2.3671875 376.1640625 C-0.5078125 377.40234375 -0.5078125 377.40234375 -2.82817078 376.63366699 C-3.71245255 376.22733032 -4.59673431 375.82099365 -5.5078125 375.40234375 C-6.45127029 375.04829468 -7.39472809 374.69424561 -8.36677551 374.32946777 C-11.77846507 372.68870696 -13.98070015 371.2441802 -16.5078125 368.40234375 C-17.84349629 363.05771588 -17.79882433 357.98765362 -17.61151695 352.50492859 C-17.51822968 349.77044152 -17.49200105 347.04225517 -17.48213196 344.30627441 C-17.45385246 339.48742811 -17.3668741 334.67175622 -17.26037598 329.85406494 C-17.09043872 322.14455663 -16.96856642 314.43629539 -16.92493629 306.72502136 C-16.89500069 304.03822756 -16.81474884 301.35611543 -16.73112488 298.67053223 C-16.34623127 290.37122592 -16.34623127 290.37122592 -19.2118988 282.83265686 C-21.2248403 281.07451479 -23.23036173 279.78513355 -25.5078125 278.40234375 C-27.35449219 276.45960999 -27.35449219 276.45960999 -28.89453125 274.5859375 C-33.11371159 269.62184369 -37.70524917 265.05862316 -42.3203125 260.46484375 C-43.17818359 259.60310547 -44.03605469 258.74136719 -44.91992188 257.85351562 C-45.73912109 257.03560547 -46.55832031 256.21769531 -47.40234375 255.375 C-48.51379761 254.26523804 -48.51379761 254.26523804 -49.64770508 253.13305664 C-51.4019032 251.33785707 -51.4019032 251.33785707 -53.5078125 250.40234375 C-53.65636203 245.91843339 -53.76511554 241.43583257 -53.83740234 236.95019531 C-53.86753927 235.42520192 -53.90845858 233.90038138 -53.96044922 232.37597656 C-54.03341743 230.18120734 -54.0672939 227.98873124 -54.09375 225.79296875 C-54.12471771 225.11365295 -54.15568542 224.43433716 -54.18759155 223.73443604 C-54.18896484 221.79394531 -54.18896484 221.79394531 -53.5078125 218.40234375 C-50.55712891 216.04980469 -50.55712891 216.04980469 -47.5078125 214.40234375 C-45.17784018 211.43692443 -45.03355837 208.16596541 -45.1171875 204.4375 C-45.82603122 200.74442422 -47.81920061 198.96590393 -50.5078125 196.40234375 C-55.05843663 194.88546904 -58.89015646 194.68338551 -63.3203125 196.65234375 C-66.17581465 198.93674547 -67.30816374 200.95294563 -67.80859375 204.5859375 C-67.83322928 209.32417157 -67.70919934 212.62928069 -64.5078125 216.40234375 C-62.5278125 217.39234375 -62.5278125 217.39234375 -60.5078125 218.40234375 C-60.5078125 229.95234375 -60.5078125 241.50234375 -60.5078125 253.40234375 C-58.5278125 254.39234375 -58.5278125 254.39234375 -56.5078125 255.40234375 C-54.81533607 256.95722047 -53.17306785 258.56763601 -51.5703125 260.21484375 C-50.73628906 261.06691406 -49.90226562 261.91898438 -49.04296875 262.796875 C-48.20636719 263.65667969 -47.36976563 264.51648438 -46.5078125 265.40234375 C-45.64414062 266.25699219 -44.78046875 267.11164063 -43.890625 267.9921875 C-41.37776283 270.53388579 -39.10998566 273.19390139 -36.83984375 275.94921875 C-35.5498434 277.53013558 -35.5498434 277.53013558 -33.5078125 278.40234375 C-33.5078125 279.06234375 -33.5078125 279.72234375 -33.5078125 280.40234375 C-32.8478125 280.40234375 -32.1878125 280.40234375 -31.5078125 280.40234375 C-30.0703125 281.8984375 -30.0703125 281.8984375 -28.5078125 283.83984375 C-26.36256206 286.55422613 -26.36256206 286.55422613 -23.5078125 288.40234375 C-23.5078125 312.82234375 -23.5078125 337.24234375 -23.5078125 362.40234375 C-33.05901066 357.62674467 -33.05901066 357.62674467 -36.5078125 353.40234375 C-37.42675058 349.06689428 -36.85297931 345.01267981 -36.33984375 340.640625 C-36.15622502 338.06708702 -35.98531778 335.49261745 -35.82568359 332.91748047 C-35.78116153 332.25091022 -35.73663946 331.58433996 -35.69076824 330.89757061 C-33.83539981 303.96668556 -33.83539981 303.96668556 -45.44921875 280.46875 C-53.29637097 271.90777646 -62.34119687 264.45119907 -71.78707886 257.71932983 C-73.53947368 256.37811145 -75.07138634 255.08007179 -76.5078125 253.40234375 C-76.55932617 250.87231445 -76.55932617 250.87231445 -76.17578125 247.828125 C-74.86036615 234.34477504 -74.86036615 234.34477504 -79.89746094 222.29785156 C-82.93753283 219.26596781 -86.2421058 216.54683104 -89.5703125 213.83984375 C-96.36582731 208.29920629 -101.83857117 203.6219493 -102.93040466 194.53883362 C-103.58942596 185.02760694 -102.4057343 175.9801763 -101.5078125 166.40234375 C-115.6978125 166.07234375 -129.8878125 165.74234375 -144.5078125 165.40234375 C-144.5078125 161.77234375 -144.5078125 158.14234375 -144.5078125 154.40234375 C-143.2710376 154.3772876 -142.0342627 154.35223145 -140.76000977 154.32641602 C-136.18844537 154.23252122 -131.61703932 154.13225746 -127.0456543 154.0300293 C-125.06392104 153.98661231 -123.08214872 153.94494238 -121.1003418 153.9050293 C-118.2581808 153.84748992 -115.41621767 153.7837493 -112.57421875 153.71875 C-111.23672325 153.69368126 -111.23672325 153.69368126 -109.87220764 153.66810608 C-105.86832855 153.96575675 -105.86832855 153.96575675 -102.5078125 152.40234375 C-102.41066745 150.5110276 -102.37578391 148.61644611 -102.3671875 146.72265625 C-102.34785156 145.56636719 -102.32851563 144.41007813 -102.30859375 143.21875 C-102.27484932 140.76578936 -102.25651881 138.31256634 -102.25390625 135.859375 C-102.21716797 134.12107422 -102.21716797 134.12107422 -102.1796875 132.34765625 C-102.1703418 131.28047363 -102.16099609 130.21329102 -102.15136719 129.11376953 C-101.5078125 126.40234375 -101.5078125 126.40234375 -99.04785156 124.63623047 C-98.20963867 124.22904785 -97.37142578 123.82186523 -96.5078125 123.40234375 C-94.14923786 120.36989064 -94.14847334 117.14168561 -94.25390625 113.3671875 C-94.63138718 110.44606583 -95.64922622 108.65919851 -97.5078125 106.40234375 C-101.70388814 103.86143654 -105.72016674 103.685477 -110.5078125 104.40234375 C-113.37811119 106.19628043 -114.99912888 107.38497651 -116.5078125 110.40234375 C-116.94062914 114.63895277 -116.95639956 118.31629086 -115.3203125 122.27734375 C-113.64185715 124.58778122 -113.64185715 124.58778122 -110.9140625 125.3984375 C-108.5078125 127.40234375 -108.5078125 127.40234375 -108.10229492 129.51660156 C-108.01444209 132.22734084 -108.07397962 134.87950338 -108.1953125 137.58984375 C-108.2984375 140.82796875 -108.4015625 144.06609375 -108.5078125 147.40234375 C-116.4278125 147.40234375 -124.3478125 147.40234375 -132.5078125 147.40234375 C-132.5078125 126.94234375 -132.5078125 106.48234375 -132.5078125 85.40234375 C-124.9178125 84.08234375 -117.3278125 82.76234375 -109.5078125 81.40234375 C-73.17054993 75.00493837 -35.45226642 60.49207036 -4.97216797 39.67016602 C-2.5078125 38.40234375 -2.5078125 38.40234375 -0.41821289 38.58789062 C1.522618 39.41531706 3.26618474 40.32030232 5.05859375 41.43359375 C5.70892578 41.83191406 6.35925781 42.23023438 7.02929688 42.640625 C7.69767578 43.05699219 8.36605469 43.47335937 9.0546875 43.90234375 C14.06378726 47.07053876 14.06378726 47.07053876 19.4921875 49.40234375 C20.0910782 44.29816164 20.56089242 39.20711684 18.4921875 34.40234375 C14.18104523 29.74746047 8.15795704 27.06032257 2.4921875 24.40234375 C1.63496094 23.89832031 0.77773438 23.39429688 -0.10546875 22.875 C-2.72509974 22.09932333 -2.72509974 22.09932333 -5.64453125 24.04296875 C-6.83899098 24.89777731 -8.02191085 25.76885053 -9.1953125 26.65234375 C-10.53377994 27.5994008 -11.87640563 28.54060234 -13.22265625 29.4765625 C-13.92374512 29.96431152 -14.62483398 30.45206055 -15.34716797 30.95458984 C-34.11942823 43.5330648 -55.70032034 52.77368738 -77.16015625 59.6328125 C-78.97580617 60.22795898 -80.77821936 60.86357427 -82.57421875 61.515625 C-101.85059202 68.35016788 -125.01164299 74.40234375 -145.5078125 74.40234375 C-145.5078125 98.49234375 -145.5078125 122.58234375 -145.5078125 147.40234375 C-151.7778125 147.40234375 -158.0478125 147.40234375 -164.5078125 147.40234375 C-164.5307057 139.21150888 -164.54892069 131.02070025 -164.55962467 122.82984161 C-164.56477054 119.02359294 -164.57171035 115.21736789 -164.58325195 111.41113281 C-164.63652096 93.38100404 -164.4956132 75.41281719 -163.5078125 57.40234375 C-162.61164467 57.33748528 -162.61164467 57.33748528 -161.69737244 57.27131653 C-132.83166322 55.15845055 -103.04914657 50.35534879 -76.09790039 39.44189453 C-73.70651038 38.4820926 -71.30520419 37.55848658 -68.89453125 36.6484375 C-46.05860095 27.92649817 -23.61285422 16.21597775 -4.734375 0.53515625 C-2.5078125 -0.59765625 -2.5078125 -0.59765625 0 0 Z " fill="#152852" transform="translate(513.5078125,256.59765625)"/>
<path d="M0 0 C3.54243452 1.36591169 6.92627929 2.90931484 10.3125 4.625 C11.19550781 5.07101562 12.07851563 5.51703125 12.98828125 5.9765625 C13.65214844 6.31429688 14.31601562 6.65203125 15 7 C15.30226895 19.42202551 15.53272344 31.84316548 15.67355824 44.2681303 C15.74118236 50.03888749 15.83276895 55.80711485 15.98071289 61.57641602 C16.12280285 67.15284049 16.19986269 72.72684518 16.23340416 78.30494118 C16.25727923 80.42418307 16.3039065 82.54330408 16.37449074 84.66150475 C16.9601658 102.9792417 16.9601658 102.9792417 10.46759319 109.93999195 C8.25302712 112.01449273 5.9540204 113.91816007 3.54283714 115.75890541 C1.34159665 117.52963518 -0.43967842 119.59028349 -2.25 121.75 C-2.77078125 122.36359375 -3.2915625 122.9771875 -3.828125 123.609375 C-4.40820312 124.29773438 -4.40820312 124.29773438 -5 125 C-5.33 125.33 -5.66 125.66 -6 126 C-6.0862329 127.56459071 -6.10409103 129.13301686 -6.09423828 130.69995117 C-6.09158966 131.70156784 -6.08894104 132.70318451 -6.08621216 133.7351532 C-6.08096527 134.82673233 -6.07571838 135.91831146 -6.0703125 137.04296875 C-6.07889934 139.33659612 -6.08937622 141.63021705 -6.1015625 143.92382812 C-6.11824935 147.55395438 -6.12503396 151.18265125 -6.09960938 154.81274414 C-6.07863829 158.30705062 -6.10189621 161.79878484 -6.1328125 165.29296875 C-6.11542023 166.37442673 -6.09802795 167.4558847 -6.08010864 168.57011414 C-6.19876734 175.99252796 -6.19876734 175.99252796 -8.58099365 178.98794556 C-10.49169922 180.60668945 -10.49169922 180.60668945 -12.40158081 181.90376282 C-14.16287624 182.92185117 -14.16287624 182.92185117 -15 185 C-15.37766377 190.00404498 -15.11200434 192.99885156 -12 197 C-9.35186699 199.84429101 -8.02599069 199.9975247 -4.0625 200.375 C-0.32337578 200.22181428 2.05560902 199.42479257 5 197 C7.543082 192.8003329 7.71014146 188.79131589 7 184 C4.94161475 180.66399633 3.2606736 179.1737824 0 177 C-0.44151306 175.01797485 -0.44151306 175.01797485 -0.53100586 172.55712891 C-0.56951157 171.63501617 -0.60801727 170.71290344 -0.64768982 169.7628479 C-0.66985062 168.76087372 -0.69201141 167.75889954 -0.71484375 166.7265625 C-0.75116661 165.17538223 -0.75116661 165.17538223 -0.78822327 163.59286499 C-0.82978731 161.39555995 -0.86193546 159.19806008 -0.88549805 157.00048828 C-0.93681244 153.66963007 -1.06828117 150.34798548 -1.20117188 147.01953125 C-1.58078516 129.45865062 -1.58078516 129.45865062 4.26231384 123.17440796 C6.72189711 120.92867318 9.31798362 118.97468947 12 117 C12.99 115.515 12.99 115.515 14 114 C14.66 114 15.32 114 16 114 C16.17446934 117.41602015 16.28089623 120.83089637 16.375 124.25 C16.42527344 125.21808594 16.47554687 126.18617188 16.52734375 127.18359375 C16.58381102 129.9128451 16.57265686 132.32911931 16 135 C13.0390625 137.546875 13.0390625 137.546875 10 139 C8.15137312 142.69725375 8.52412906 146.96461442 9 151 C10.79646854 153.93423195 11.9441071 155.47205355 15 157 C19.539219 157.54399285 22.9544269 157.62289461 26.9375 155.25 C29.78206465 152.14683856 30.82909642 150.31026074 31.375 146.125 C30.89541545 142.12846204 29.53260567 140.09540692 27 137 C25.68 136.34 24.36 135.68 23 135 C23 94.08 23 53.16 23 11 C26.33473272 11.66694654 28.96107965 12.25627367 32.0546875 13.41796875 C48.86468705 19.59134181 65.96013597 23.96621191 83.4375 27.8125 C84.37827393 28.01955566 85.31904785 28.22661133 86.28833008 28.43994141 C90.38485939 29.31679296 94.43415891 30.09619785 98.59765625 30.57421875 C102 31 102 31 103 32 C103.1152179 33.91500636 103.1596949 35.8342943 103.17700195 37.75268555 C103.18965088 38.99268814 103.2022998 40.23269073 103.21533203 41.51026917 C103.22347194 42.88574955 103.23110697 44.26123299 103.23828125 45.63671875 C103.24312531 46.33314421 103.24796936 47.02956966 103.25296021 47.74709892 C103.28969028 53.0605583 103.30530784 58.37392541 103.3125 63.6875 C103.31379787 64.46506401 103.31509575 65.24262802 103.31643295 66.04375458 C103.34720255 90.24809899 102.79523835 114.04353248 99 138 C98.72712158 139.79872559 98.72712158 139.79872559 98.44873047 141.63378906 C92.56203593 179.33178106 78.59380759 217.05670374 56 248 C55.40155273 248.82153564 55.40155273 248.82153564 54.79101562 249.65966797 C41.56961012 267.6341794 26.61234839 284.24202572 9 298 C8.19304688 298.66257812 7.38609375 299.32515625 6.5546875 300.0078125 C-21.48676471 323 -21.48676471 323 -29 323 C-28.94805091 319.74870364 -28.852963 316.50004935 -28.75 313.25 C-28.72873047 311.86941406 -28.72873047 311.86941406 -28.70703125 310.4609375 C-28.46150367 303.68437617 -28.46150367 303.68437617 -26.3984375 300.625 C-23.29875167 298.52488713 -20.12977051 296.59569054 -16.875 294.75 C-10.44848065 291.01445339 -4.6372291 286.86791312 1 282 C0.34 280.35 -0.32 278.7 -1 277 C-5.23250506 278.44694414 -8.29585132 280.57015929 -11.8125 283.3125 C-24.484375 293 -24.484375 293 -28 293 C-28 242.51 -28 192.02 -28 140 C-25.36 140 -22.72 140 -20 140 C-20 139.01 -20 138.02 -20 137 C-18.70896357 135.6256709 -17.3743291 134.29103643 -16 133 C-14.40328811 129.80657621 -14.62581837 126.47454369 -15 123 C-16.65804096 119.26940785 -18.60218438 117.22615506 -22 115 C-20.49824752 111.57412716 -18.51425673 109.13170292 -16 106.375 C-14.86938354 105.12383987 -13.74040131 103.87112146 -12.62374878 102.60748291 C-11 101 -11 101 -8.57376099 99.25140381 C-3.90659866 95.53126437 -0.95825341 92.53080701 -0.07855225 86.58547974 C0.3810147 81.09912555 0.28260607 75.61685184 0.1953125 70.1171875 C0.19910426 68.09122463 0.2073013 66.06526566 0.21969604 64.03933716 C0.24041827 58.73517933 0.20171123 53.43309403 0.15020752 48.12921143 C0.10819796 42.70590971 0.12296422 37.28278661 0.1328125 31.859375 C0.14380053 21.23900019 0.0919447 10.61994796 0 0 Z " fill="#071531" transform="translate(540,311)"/>
<path d="M0 0 C2.51740531 1.41653371 4.71278761 2.94071084 6.9921875 4.71484375 C51.60450811 37.60899481 105.73303746 53.41135671 160.4921875 57.40234375 C161.38848115 76.7749491 161.77559898 96.13587495 161.8046875 115.52734375 C161.80598537 116.2452861 161.80728325 116.96322845 161.80862045 117.70292664 C161.84144998 141.79804321 160.98056296 165.52710643 157.4921875 189.40234375 C157.39081482 190.10776306 157.28944214 190.81318237 157.18499756 191.53997803 C153.92339518 214.13375263 150.06519304 236.94698352 140.94921875 258.015625 C139.86987835 260.52444035 138.83008238 263.03526361 137.81640625 265.5703125 C126.72377982 293.06869137 111.81071566 317.90807437 92.4921875 340.40234375 C91.78449219 341.24023438 91.07679688 342.078125 90.34765625 342.94140625 C79.21526806 355.72059742 67.00638217 368.1544197 53.4921875 378.40234375 C52.49445313 379.19382812 51.49671875 379.9853125 50.46875 380.80078125 C34.91661062 393.1033621 16.40124602 407.20107055 -2.5078125 413.40234375 C-5.0078125 412.390625 -5.0078125 412.390625 -7.5078125 410.71484375 C-8.3328125 410.17472656 -9.1578125 409.63460938 -10.0078125 409.078125 C-10.8328125 408.52511719 -11.6578125 407.97210937 -12.5078125 407.40234375 C-13.89033203 406.87253906 -13.89033203 406.87253906 -15.30078125 406.33203125 C-17.5078125 404.40234375 -17.5078125 404.40234375 -17.90087891 402.29272461 C-18.00172216 399.58314384 -17.94249058 396.9234378 -17.8203125 394.21484375 C-17.78647461 392.80428711 -17.78647461 392.80428711 -17.75195312 391.36523438 C-17.69300477 389.04266902 -17.61079035 386.72330599 -17.5078125 384.40234375 C-13.2815475 385.9844078 -9.6836906 388.06524764 -5.88671875 390.4765625 C-2.68490529 391.72258843 -0.83629583 391.18245703 2.4921875 390.40234375 C5.22388879 389.09891645 5.22388879 389.09891645 7.87109375 387.375 C8.86858643 386.75254395 9.8660791 386.13008789 10.89379883 385.48876953 C12.45843872 384.48692627 12.45843872 384.48692627 14.0546875 383.46484375 C15.12936279 382.78405762 16.20403809 382.10327148 17.3112793 381.40185547 C25.0595502 376.4426339 32.39288424 371.24882879 39.4921875 365.40234375 C40.38035156 364.70367188 41.26851562 364.005 42.18359375 363.28515625 C56.62810703 351.8052374 70.0555113 338.87349572 81.4921875 324.40234375 C81.98525391 323.78568848 82.47832031 323.1690332 82.98632812 322.53369141 C91.39547765 311.98596348 98.81949404 301.12639856 105.4921875 289.40234375 C105.92128418 288.65259277 106.35038086 287.9028418 106.79248047 287.13037109 C113.56652963 275.15972079 118.79360837 262.79261877 123.55957031 249.90234375 C124.32911574 247.83947852 125.13617645 245.79064949 125.953125 243.74609375 C136.5992268 216.35102923 139.65539931 185.52231638 141.4921875 156.40234375 C141.58121338 155.1496167 141.67023926 153.89688965 141.76196289 152.60620117 C142.7645972 137.38320288 142.60869374 122.14058725 142.56085205 106.89331055 C142.55045346 103.21859321 142.54601973 99.54386856 142.54101562 95.86914062 C142.53042663 88.71352435 142.51345678 81.55793695 142.4921875 74.40234375 C141.61067017 74.33940125 140.72915283 74.27645874 139.82092285 74.21160889 C138.65863159 74.12598694 137.49634033 74.04036499 136.29882812 73.95214844 C135.14918579 73.86858093 133.99954346 73.78501343 132.81506348 73.69891357 C128.46336879 73.31052071 124.25989237 72.56524585 119.9921875 71.65234375 C118.71964111 71.38574951 118.71964111 71.38574951 117.42138672 71.11376953 C115.64931482 70.73811244 113.87830633 70.35740383 112.10839844 69.97167969 C110.41527235 69.6032241 108.7206734 69.24144627 107.02441406 68.88769531 C95.35251546 66.44452168 84.04678491 63.10528558 72.7421875 59.33984375 C72.09848206 59.12624207 71.45477661 58.91264038 70.79156494 58.69256592 C63.51150766 56.26463829 56.44273028 53.6594704 49.4921875 50.40234375 C49.56577988 51.15346939 49.63937225 51.90459503 49.7151947 52.67848206 C50.79852737 65.76322838 50.52917059 78.84412561 50.39165235 91.96246028 C50.35685795 95.39767252 50.32857275 98.8329388 50.29954529 102.26820374 C50.24382201 108.748873 50.18239347 115.22947461 50.11882395 121.71007115 C50.04663503 129.09838905 49.98094518 136.48676049 49.91575348 143.87514293 C49.78170603 159.05094611 49.63965219 174.22666456 49.4921875 189.40234375 C50.65814453 189.81226563 50.65814453 189.81226563 51.84765625 190.23046875 C55.53276612 191.86345688 56.6553537 193.86473792 58.4921875 197.40234375 C59.15881919 201.40213391 58.70429002 203.01601416 56.7421875 206.58984375 C52.34761987 212.08305328 52.34761987 212.08305328 48.44921875 212.75390625 C44.18544644 213.02530214 41.36248536 212.77893959 37.9921875 210.02734375 C34.13605587 205.97840554 34.15215447 203.31168075 34.20703125 197.88671875 C34.61096867 194.36748318 35.83537529 192.69015427 38.4921875 190.40234375 C39.8121875 190.07234375 41.1321875 189.74234375 42.4921875 189.40234375 C42.4921875 182.47234375 42.4921875 175.54234375 42.4921875 168.40234375 C40.8421875 170.05234375 39.1921875 171.70234375 37.4921875 173.40234375 C36.18507813 174.30376099 36.18507813 174.30376099 34.8515625 175.22338867 C30.8278526 178.26413576 28.06714805 180.90698271 26.92626953 185.85845947 C26.17684792 192.02663981 26.24252445 198.18752736 26.40820312 204.38989258 C26.49244898 207.72519597 26.49029271 211.05247644 26.4765625 214.38867188 C26.49753431 216.51437898 26.52340417 218.64004464 26.5546875 220.765625 C26.55509033 221.75838943 26.55549316 222.75115387 26.5559082 223.77400208 C26.62055542 228.79079052 26.62055542 228.79079052 28.85498047 233.10067749 C30.65524734 234.62905867 30.65524734 234.62905867 33.4921875 236.40234375 C35.22809902 239.87416678 34.95790423 243.60643339 34.4921875 247.40234375 C32.88503976 250.55924109 31.51780516 252.59650131 28.7421875 254.77734375 C25.22220739 255.755116 22.05665261 256.17751553 18.4921875 255.40234375 C14.62007362 253.05088762 11.93636071 250.73486339 10.4921875 246.40234375 C10.02223124 242.91124008 9.81291701 240.45991566 11.76171875 237.42578125 C15.656626 232.8201245 15.656626 232.8201245 18.4921875 231.40234375 C18.48766319 230.46726234 18.48766319 230.46726234 18.48304749 229.51329041 C18.45842857 223.00741885 18.48266984 216.50301324 18.53491211 209.99731445 C18.54802775 207.57156857 18.5488083 205.14572264 18.53686523 202.7199707 C18.52182825 199.22637894 18.55157743 195.73555294 18.58984375 192.2421875 C18.57558853 191.16275375 18.56133331 190.08332001 18.54664612 188.97117615 C18.65086921 183.51444715 18.97740704 180.26024745 22.92553711 176.29907227 C24.10037752 175.31645778 25.28764778 174.34831695 26.4921875 173.40234375 C27.67738627 172.08545622 28.84882381 170.75571301 29.9921875 169.40234375 C31.63716964 167.45522203 33.22129366 165.62663732 35.18776035 163.99845028 C38.74092923 160.92053791 40.91573941 158.67531335 41.33396912 153.87806702 C41.35406811 152.15321336 41.33607351 150.42763787 41.28686523 148.70336914 C41.28839851 147.28269135 41.28839851 147.28269135 41.28996277 145.83331299 C41.28510859 142.72104306 41.23076977 139.61175352 41.17578125 136.5 C41.16271735 134.33525698 41.15275692 132.1704932 41.14576721 130.00572205 C41.11910439 124.32195388 41.05039567 118.63944793 40.97283936 112.95617676 C40.90109274 107.15129673 40.86923122 101.34621172 40.83398438 95.54101562 C40.75902433 84.16090529 40.63963057 72.78172968 40.4921875 61.40234375 C33.5621875 57.93734375 33.5621875 57.93734375 26.4921875 54.40234375 C26.5488131 56.05580055 26.5488131 56.05580055 26.60658264 57.74266052 C26.95321932 68.19945076 27.20696766 78.65505747 27.37299442 89.1163168 C27.46123509 94.49349716 27.58058932 99.86599427 27.7746582 105.24047852 C29.16846752 144.84508933 29.16846752 144.84508933 20.53013611 154.41481018 C17.64612864 156.9690993 14.68481016 159.14494697 11.40280151 161.1579895 C8.7907815 162.85915896 7.09370731 164.74005885 5.4921875 167.40234375 C6.72666759 171.10578403 8.72553091 172.70485357 11.4921875 175.40234375 C13.0996782 178.61732514 12.96533299 181.91532633 12.4921875 185.40234375 C10.38432069 189.46751546 8.71627445 191.69571995 4.4921875 193.40234375 C1.41881032 193.92465293 -1.43601451 193.9508791 -4.5078125 193.40234375 C-7.60413899 190.96481013 -9.33081737 188.66783644 -11.5078125 185.40234375 C-11.93926612 180.05231892 -11.96432579 176.75499011 -8.5078125 172.40234375 C-5.5078125 170.40234375 -5.5078125 170.40234375 -2.5078125 170.40234375 C-2.64960938 169.396875 -2.79140625 168.39140625 -2.9375 167.35546875 C-2.33319246 161.79583938 0.34966232 159.78462679 4.3671875 156.15234375 C5.65805268 154.9407198 6.94718718 153.72724869 8.234375 152.51171875 C8.8104248 151.98545898 9.38647461 151.45919922 9.97998047 150.91699219 C11.71889113 149.27389056 11.71889113 149.27389056 13.4921875 146.40234375 C14.1521875 146.40234375 14.8121875 146.40234375 15.4921875 146.40234375 C15.8015625 145.76296875 16.1109375 145.12359375 16.4296875 144.46484375 C17.4921875 142.40234375 17.4921875 142.40234375 18.4921875 141.40234375 C18.62207862 140.0346967 18.68492262 138.66059741 18.72010803 137.2872467 C18.74460526 136.40000916 18.76910248 135.51277161 18.79434204 134.59864807 C18.81588348 133.61742477 18.83742493 132.63620148 18.85961914 131.62524414 C18.88546585 130.59752899 18.91131256 129.56981384 18.9379425 128.51095581 C19.16391645 119.00354884 19.29775803 109.49456611 19.40331364 99.98513126 C19.47554387 93.5939068 19.57821514 87.20641993 19.75415039 80.81713867 C19.92340319 74.64289185 20.01359953 68.47206769 20.04916191 62.29565239 C20.07613313 59.94495832 20.13092133 57.59440776 20.21443367 55.2450428 C21.11046183 43.21964693 21.11046183 43.21964693 16.9244194 32.43052292 C12.62942506 28.67474618 7.77840164 26.42317042 2.4921875 24.40234375 C1.56249649 23.96418839 0.63280548 23.52603302 -0.32505798 23.07460022 C-2.73435104 22.05226603 -2.73435104 22.05226603 -5.64453125 24.04296875 C-6.83899098 24.89777731 -8.02191085 25.76885053 -9.1953125 26.65234375 C-10.53377994 27.5994008 -11.87640563 28.54060234 -13.22265625 29.4765625 C-13.92374512 29.96431152 -14.62483398 30.45206055 -15.34716797 30.95458984 C-34.11942823 43.5330648 -55.70032034 52.77368738 -77.16015625 59.6328125 C-78.97580617 60.22795898 -80.77821936 60.86357427 -82.57421875 61.515625 C-101.85059202 68.35016788 -125.01164299 74.40234375 -145.5078125 74.40234375 C-145.5078125 98.49234375 -145.5078125 122.58234375 -145.5078125 147.40234375 C-151.7778125 147.40234375 -158.0478125 147.40234375 -164.5078125 147.40234375 C-164.5307057 139.21150888 -164.54892069 131.02070025 -164.55962467 122.82984161 C-164.56477054 119.02359294 -164.57171035 115.21736789 -164.58325195 111.41113281 C-164.63652096 93.38100404 -164.4956132 75.41281719 -163.5078125 57.40234375 C-162.61164467 57.33748528 -162.61164467 57.33748528 -161.69737244 57.27131653 C-132.83166322 55.15845055 -103.04914657 50.35534879 -76.09790039 39.44189453 C-73.70651038 38.4820926 -71.30520419 37.55848658 -68.89453125 36.6484375 C-46.05860095 27.92649817 -23.61285422 16.21597775 -4.734375 0.53515625 C-2.5078125 -0.59765625 -2.5078125 -0.59765625 0 0 Z " fill="#B8B8B8" transform="translate(513.5078125,256.59765625)"/>
<path d="M0 0 C3.53029629 0.62039505 6.69986267 1.5494214 10.03515625 2.85546875 C10.9988916 3.22768555 11.96262695 3.59990234 12.95556641 3.98339844 C13.98085449 4.38075195 15.00614258 4.77810547 16.0625 5.1875 C34.05101158 12.02503221 52.16285304 17.09067665 71 21 C71.74314453 21.15597656 72.48628906 21.31195313 73.25195312 21.47265625 C85.7328118 24.04054376 98.31073584 25.02617494 111 26 C111.89629365 45.37260535 112.28341148 64.7335312 112.3125 84.125 C112.31379787 84.84294235 112.31509575 85.5608847 112.31643295 86.30058289 C112.34926248 110.39569946 111.48837546 134.12476268 108 158 C107.89862732 158.70541931 107.79725464 159.41083862 107.69281006 160.13763428 C104.43120768 182.73140888 100.57300554 205.54463977 91.45703125 226.61328125 C90.37769085 229.1220966 89.33789488 231.63291986 88.32421875 234.16796875 C77.23159232 261.66634762 62.31852816 286.50573062 43 309 C42.29230469 309.83789062 41.58460938 310.67578125 40.85546875 311.5390625 C29.72308056 324.31825367 17.51419467 336.75207595 4 347 C3.00226563 347.79148437 2.00453125 348.58296875 0.9765625 349.3984375 C-14.57557688 361.70101835 -33.09094148 375.7987268 -52 382 C-54.5 380.98828125 -54.5 380.98828125 -57 379.3125 C-57.825 378.77238281 -58.65 378.23226563 -59.5 377.67578125 C-60.325 377.12277344 -61.15 376.56976562 -62 376 C-62.92167969 375.64679688 -63.84335937 375.29359375 -64.79296875 374.9296875 C-67 373 -67 373 -67.39306641 370.89038086 C-67.49390966 368.18080009 -67.43467808 365.52109405 -67.3125 362.8125 C-67.28994141 361.87212891 -67.26738281 360.93175781 -67.24414062 359.96289062 C-67.18519227 357.64032527 -67.10297785 355.32096224 -67 353 C-62.773735 354.58206405 -59.1758781 356.66290389 -55.37890625 359.07421875 C-52.17709279 360.32024468 -50.32848333 359.78011328 -47 359 C-44.26829871 357.6965727 -44.26829871 357.6965727 -41.62109375 355.97265625 C-40.62360107 355.3502002 -39.6261084 354.72774414 -38.59838867 354.08642578 C-37.03374878 353.08458252 -37.03374878 353.08458252 -35.4375 352.0625 C-34.36282471 351.38171387 -33.28814941 350.70092773 -32.1809082 349.99951172 C-24.4326373 345.04029015 -17.09930326 339.84648504 -10 334 C-8.66775391 332.95199219 -8.66775391 332.95199219 -7.30859375 331.8828125 C7.13591953 320.40289365 20.5633238 307.47115197 32 293 C32.49306641 292.38334473 32.98613281 291.76668945 33.49414062 291.13134766 C41.90329015 280.58361973 49.32730654 269.72405481 56 258 C56.42909668 257.25024902 56.85819336 256.50049805 57.30029297 255.72802734 C64.07434213 243.75737704 69.30142087 231.39027502 74.06738281 218.5 C74.83692824 216.43713477 75.64398895 214.38830574 76.4609375 212.34375 C87.1070393 184.94868548 90.16321181 154.11997263 92 125 C92.08902588 123.74727295 92.17805176 122.4945459 92.26977539 121.20385742 C93.2724097 105.98085913 93.11650624 90.7382435 93.06866455 75.4909668 C93.05826596 71.81624946 93.05383223 68.14152481 93.04882812 64.46679688 C93.03823913 57.3111806 93.02126928 50.1555932 93 43 C92.11848267 42.9370575 91.23696533 42.87411499 90.32873535 42.80926514 C89.16644409 42.72364319 88.00415283 42.63802124 86.80664062 42.54980469 C85.65699829 42.46623718 84.50735596 42.38266968 83.32287598 42.29656982 C78.97118129 41.90817696 74.76770487 41.1629021 70.5 40.25 C69.65163574 40.07227051 68.80327148 39.89454102 67.92919922 39.71142578 C66.15712732 39.33576869 64.38611883 38.95506008 62.61621094 38.56933594 C60.92308485 38.20088035 59.2284859 37.83910252 57.53222656 37.48535156 C45.84263534 35.03847449 34.51361172 31.69589901 23.1875 27.9375 C22.53952454 27.72389832 21.89154907 27.51029663 21.22393799 27.29022217 C3.37667522 21.37667522 3.37667522 21.37667522 0 18 C-0.08631874 16.65732587 -0.10706473 15.31025678 -0.09765625 13.96484375 C-0.09282227 12.75151367 -0.09282227 12.75151367 -0.08789062 11.51367188 C-0.07532227 10.2384668 -0.07532227 10.2384668 -0.0625 8.9375 C-0.05798828 8.08349609 -0.05347656 7.22949219 -0.04882812 6.34960938 C-0.03700373 4.23304337 -0.01906769 2.11651315 0 0 Z " fill="#7F8082" transform="translate(563,288)"/>
<path d="M0 0 C7.26 0 14.52 0 22 0 C21.690625 3.04734375 21.690625 3.04734375 21.375 6.15625 C19.94855569 21.57163836 19.94855569 21.57163836 25.38671875 35.41992188 C28.35226449 38.63531937 31.63329557 41.46560815 35 44.25 C46.4981854 53.77250633 46.4981854 53.77250633 47.73095703 59.24462891 C47.72235263 62.7364976 47.46388942 66.09419539 47.0625 69.5625 C46.30741185 76.70101423 46.42057574 82.30253734 50.88769531 88.15039062 C57.715852 96.18892548 65.62827945 103.33283177 73.61941528 110.19537354 C77.36856673 113.42110151 80.64206142 116.74583191 83.74995422 120.59892273 C84.96820222 122.13813186 84.96820222 122.13813186 87 123 C87 139.83 87 156.66 87 174 C82.90732107 171.95366054 80.02937076 169.47308227 76.75 166.375 C76.1715332 165.83302979 75.59306641 165.29105957 74.99707031 164.73266602 C73.3256793 163.16100725 71.6618217 161.58176543 70 160 C68.8553125 158.91912109 68.8553125 158.91912109 67.6875 157.81640625 C27.38621482 118.73390993 4.6679152 60.09651342 0 5 C0 3.35 0 1.7 0 0 Z " fill="#1A2A50" transform="translate(383,429)"/>
<path d="M0 0 C2.99867123 1.181943 5.8435432 2.37750479 8.63671875 3.98828125 C9.62768555 4.55385742 9.62768555 4.55385742 10.63867188 5.13085938 C11.31478516 5.52080078 11.99089844 5.91074219 12.6875 6.3125 C17.15675914 8.88703888 21.64856209 11.35347563 26.26879883 13.64916992 C27.60277458 14.31295906 27.60277458 14.31295906 28.96369934 14.99015808 C29.63567856 15.32340591 30.30765778 15.65665375 31 16 C31.11179731 46.91733016 30.81792492 77.83246343 30.55461788 108.74831402 C30.4929842 115.99195676 30.4330624 123.23561339 30.37324238 130.47927129 C30.25065142 145.31952969 30.12604246 160.15977048 30 175 C30.77730469 175.27328125 31.55460938 175.5465625 32.35546875 175.828125 C36.04057862 177.46111313 37.1631662 179.46239417 39 183 C39.66663169 186.99979016 39.21210252 188.61367041 37.25 192.1875 C32.85543237 197.68070953 32.85543237 197.68070953 28.95703125 198.3515625 C24.69325894 198.62295839 21.87029786 198.37659584 18.5 195.625 C14.64386837 191.57606179 14.65996697 188.909337 14.71484375 183.484375 C15.11878117 179.96513943 16.34318779 178.28781052 19 176 C20.32 175.67 21.64 175.34 23 175 C23 168.07 23 161.14 23 154 C21.35 155.65 19.7 157.3 18 159 C16.69289063 159.90141724 16.69289063 159.90141724 15.359375 160.82104492 C11.3356651 163.86179201 8.57496055 166.50463896 7.43408203 171.45611572 C6.68466042 177.62429606 6.75033695 183.78518361 6.91601562 189.98754883 C7.00026148 193.32285222 6.99810521 196.65013269 6.984375 199.98632812 C7.00534681 202.11203523 7.03121667 204.23770089 7.0625 206.36328125 C7.06310425 207.8524279 7.06310425 207.8524279 7.0637207 209.37165833 C7.12836792 214.38844677 7.12836792 214.38844677 9.36279297 218.69833374 C11.16305984 220.22671492 11.16305984 220.22671492 14 222 C15.73591152 225.47182303 15.46571673 229.20408964 15 233 C13.39285226 236.15689734 12.02561766 238.19415756 9.25 240.375 C5.73001989 241.35277225 2.56446511 241.77517178 -1 241 C-4.87211388 238.64854387 -7.55582679 236.33251964 -9 232 C-9.46995626 228.50889633 -9.67927049 226.05757191 -7.73046875 223.0234375 C-3.8355615 218.41778075 -3.8355615 218.41778075 -1 217 C-1.0030162 216.3766124 -1.00603241 215.75322479 -1.00914001 215.11094666 C-1.03375893 208.6050751 -1.00951766 202.10066949 -0.95727539 195.5949707 C-0.94415975 193.16922482 -0.9433792 190.74337889 -0.95532227 188.31762695 C-0.97035925 184.82403519 -0.94061007 181.33320919 -0.90234375 177.83984375 C-0.91659897 176.76041 -0.93085419 175.68097626 -0.94554138 174.5688324 C-0.84131829 169.1121034 -0.51478046 165.8579037 3.43334961 161.89672852 C4.60819002 160.91411403 5.79546028 159.9459732 7 159 C8.18519877 157.68311247 9.35663631 156.35336926 10.5 155 C12.14498214 153.05287828 13.72910616 151.22429357 15.69557285 149.59610653 C19.24874173 146.51819416 21.42355191 144.2729696 21.84178162 139.47572327 C21.86188061 137.75086961 21.84388601 136.02529412 21.79467773 134.30102539 C21.79569992 133.35390686 21.79672211 132.40678833 21.79777527 131.43096924 C21.79292109 128.31869931 21.73858227 125.20940977 21.68359375 122.09765625 C21.67052985 119.93291323 21.66056942 117.76814945 21.65357971 115.6033783 C21.62691689 109.91961013 21.55820817 104.23710418 21.48065186 98.55383301 C21.40890524 92.74895298 21.37704372 86.94386797 21.34179688 81.13867188 C21.26683683 69.75856154 21.14744307 58.37938593 21 47 C16.38 44.69 11.76 42.38 7 40 C7.0377504 41.10230453 7.07550079 42.20460907 7.11439514 43.34031677 C7.46103182 53.79710701 7.71478016 64.25271372 7.88080692 74.71397305 C7.96904759 80.09115341 8.08840182 85.46365052 8.2824707 90.83813477 C9.67628002 130.44274558 9.67628002 130.44274558 1.03794861 140.01246643 C-1.84605886 142.56675555 -4.80737734 144.74260322 -8.08938599 146.75564575 C-10.701406 148.45681521 -12.39848019 150.3377151 -14 153 C-12.76551991 156.70344028 -10.76665659 158.30250982 -8 161 C-6.3925093 164.21498139 -6.52685451 167.51298258 -7 171 C-9.10786681 175.06517171 -10.77591305 177.2933762 -15 179 C-18.07337718 179.52230918 -20.92820201 179.54853535 -24 179 C-27.09632649 176.56246638 -28.82300487 174.26549269 -31 171 C-31.43145362 165.64997517 -31.45651329 162.35264636 -28 158 C-25 156 -25 156 -22 156 C-22.14179688 154.99453125 -22.28359375 153.9890625 -22.4296875 152.953125 C-21.82537996 147.39349563 -19.14252518 145.38228304 -15.125 141.75 C-13.83413482 140.53837605 -12.54500032 139.32490494 -11.2578125 138.109375 C-10.6817627 137.58311523 -10.10571289 137.05685547 -9.51220703 136.51464844 C-7.77329637 134.87154681 -7.77329637 134.87154681 -6 132 C-5.34 132 -4.68 132 -4 132 C-3.690625 131.360625 -3.38125 130.72125 -3.0625 130.0625 C-2 128 -2 128 -1 127 C-0.9067959 125.63849547 -0.88254321 124.27218658 -0.88647461 122.90750122 C-0.8865451 122.02485596 -0.8866156 121.14221069 -0.88668823 120.2328186 C-0.89185455 119.25638397 -0.89702087 118.27994934 -0.90234375 117.27392578 C-0.90453415 115.73940765 -0.90453415 115.73940765 -0.9067688 114.17388916 C-0.91058756 111.940538 -0.91671735 109.70718992 -0.92483521 107.47385025 C-0.93757928 103.92322436 -0.94411149 100.37263583 -0.94897461 96.82199097 C-0.96236613 87.98498633 -0.98633477 79.14801618 -1.01037598 70.31103516 C-1.03025773 62.87382064 -1.04584835 55.43662028 -1.05593872 47.99938583 C-1.06234243 44.53066234 -1.07486058 41.06199716 -1.08764648 37.59329224 C-1.11619349 25.02629106 -0.83259611 12.54045085 0 0 Z " fill="#0DCCDD" transform="translate(533,271)"/>
<path d="M0 0 C6.27 0 12.54 0 19 0 C19.09667969 1.76472656 19.19335938 3.52945312 19.29296875 5.34765625 C19.9117491 13.35062104 21.32419935 21.14517652 22.84643555 29.01977539 C23.31080242 31.42869377 23.76062148 33.8400108 24.20898438 36.25195312 C32.64095097 80.90621905 52.16002055 123.45782802 82.56054688 157.39306641 C83.94118814 158.93434537 85.30710784 160.48763965 86.671875 162.04296875 C91.75538146 167.73559359 97.06829208 173.08557932 102.625 178.3125 C103.26356934 178.92158203 103.90213867 179.53066406 104.56005859 180.15820312 C108.01839421 183.39396816 111.2464397 185.74936762 115.4375 188 C117.75808753 190.13626266 118.88206984 191.39409711 119.49072266 194.52124023 C119.5066748 195.44106689 119.52262695 196.36089355 119.5390625 197.30859375 C119.55912354 198.30568359 119.57918457 199.30277344 119.59985352 200.33007812 C119.54493929 204.89836776 119.34092757 209.44439172 119 214 C96.70352919 203.21519766 75.7561001 180.25259413 61 161 C60.37867188 160.2575 59.75734375 159.515 59.1171875 158.75 C47.98958974 145.41490309 38.98418004 130.38052526 31 115 C30.6498584 114.32710937 30.2997168 113.65421875 29.93896484 112.9609375 C23.36348445 100.13073186 18.6670913 86.61568047 14 73 C13.73558105 72.2486377 13.47116211 71.49727539 13.19873047 70.72314453 C7.20527215 53.65907313 4.47520485 35.62514181 1.6875 17.8125 C1.51597412 16.72018066 1.34444824 15.62786133 1.16772461 14.50244141 C1.01311768 13.47683105 0.85851074 12.4512207 0.69921875 11.39453125 C0.56346436 10.49581299 0.42770996 9.59709473 0.2878418 8.67114258 C-0.02200284 5.79581587 0 2.89197292 0 0 Z " fill="#B8B8B8" transform="translate(351,429)"/>
<path d="M0 0 C4.62 0 9.24 0 14 0 C14.36351562 1.16273438 14.72703125 2.32546875 15.1015625 3.5234375 C18.61467687 14.72369849 22.25218272 25.87615935 26 37 C27.82962611 34.25556084 28.77425516 32.11061156 29.83984375 29.02734375 C30.18080078 28.04443359 30.52175781 27.06152344 30.87304688 26.04882812 C31.39995117 24.5087207 31.39995117 24.5087207 31.9375 22.9375 C32.28490234 21.93783203 32.63230469 20.93816406 32.99023438 19.90820312 C34.93737778 14.26478748 36.7547369 8.60769906 38.38891602 2.86547852 C39 1 39 1 40 0 C42.18639453 -0.07258946 44.37500389 -0.08373783 46.5625 -0.0625 C48.35880859 -0.04896484 48.35880859 -0.04896484 50.19140625 -0.03515625 C51.11824219 -0.02355469 52.04507813 -0.01195312 53 0 C53.27880005 0.93513428 53.27880005 0.93513428 53.56323242 1.88916016 C57.09475052 13.70151685 60.65867472 25.45647609 65 37 C67.78748 29.78851948 70.20391464 22.4663556 72.625 15.125 C73.42830983 12.68964931 74.23292868 10.25472987 75.0390625 7.8203125 C75.39178223 6.75055176 75.74450195 5.68079102 76.10791016 4.57861328 C77 2 77 2 78 0 C81.96 0 85.92 0 90 0 C88.09170668 7.15035207 86.03350729 14.21164018 83.75 21.25 C80.03822886 32.79482573 76.50408877 44.39070894 73 56 C68.05 56 63.1 56 58 56 C49.23404255 31.08510638 49.23404255 31.08510638 46 20 C42.41333402 27.46892272 39.81799129 35.19541269 37.25 43.0625 C36.63318359 44.93325195 36.63318359 44.93325195 36.00390625 46.84179688 C34.99847204 49.89317281 33.99866139 52.94640074 33 56 C28.05 56 23.1 56 18 56 C12.66316899 40.75635259 7.35897129 25.55762925 3 10 C2.40063094 7.97773853 1.79716932 5.95668004 1.1875 3.9375 C0.795625 2.638125 0.40375 1.33875 0 0 Z " fill="#0C1933" transform="translate(519,711)"/>
<path d="M0 0 C4.3633321 1.5904512 8.24786385 3.74175922 12.25 6.0625 C12.88679687 6.42666016 13.52359375 6.79082031 14.1796875 7.16601562 C18.85925752 9.85925752 18.85925752 9.85925752 20 11 C20.11651411 13.8036352 20.16801808 16.58296191 20.17700195 19.38769531 C20.18357315 20.2673848 20.19014435 21.14707428 20.19691467 22.05342102 C20.21670085 24.97832311 20.22832286 27.9031737 20.23828125 30.828125 C20.24235678 31.82493034 20.2464323 32.82173569 20.25063133 33.84874725 C20.27151608 39.12588801 20.28580661 44.40300259 20.29516602 49.68017578 C20.30622758 55.13575978 20.34061781 60.59093556 20.38033772 66.04637527 C20.40646844 70.23625453 20.41485477 74.42603611 20.41844749 78.61598969 C20.42332366 80.62704979 20.43496682 82.63810525 20.45348549 84.649086 C20.47779854 87.46462908 20.47692608 90.27911093 20.4699707 93.09472656 C20.48918579 94.34178123 20.48918579 94.34178123 20.50878906 95.61402893 C20.4629223 100.70756743 19.77212694 103.26942608 16 107 C14.8553125 108.175625 14.8553125 108.175625 13.6875 109.375 C12.800625 110.24125 11.91375 111.1075 11 112 C10.43925781 112.61746094 9.87851562 113.23492187 9.30078125 113.87109375 C8.70652344 114.51175781 8.11226562 115.15242188 7.5 115.8125 C6.9534375 116.41707031 6.406875 117.02164063 5.84375 117.64453125 C3.4513962 119.40331678 1.90355167 119.10314624 -1 119 C-1.02332953 103.63198551 -1.04097944 88.26397184 -1.05181217 72.89594364 C-1.05697501 65.76078259 -1.06401748 58.62563252 -1.07543945 51.49047852 C-1.08644675 44.61110263 -1.09227617 37.73173819 -1.09487724 30.85235405 C-1.09673206 28.22118385 -1.10035373 25.59001431 -1.10573006 22.95884895 C-1.11293635 19.2877375 -1.11399112 15.61667397 -1.11352539 11.94555664 C-1.11712067 10.84576477 -1.12071594 9.7459729 -1.12442017 8.612854 C-1.12235817 7.12148674 -1.12235817 7.12148674 -1.12025452 5.59999084 C-1.12117631 4.73074006 -1.1220981 3.86148928 -1.12304783 2.96589756 C-1 1 -1 1 0 0 Z " fill="#051734" transform="translate(513,296)"/>
<path d="M0 0 C1.32 0.33 2.64 0.66 4 1 C4.00238835 1.80729239 4.00477671 2.61458477 4.00723743 3.44634056 C4.06630852 23.06669753 4.14180762 42.68692785 4.23571491 62.30714989 C4.2807289 71.79525011 4.3201305 81.28331232 4.34643555 90.77148438 C4.3693704 99.03894413 4.40271748 107.30628416 4.44870156 115.57364905 C4.47269496 119.95337761 4.4913835 124.33298715 4.49761391 128.71278 C4.50363728 132.83157844 4.52353648 136.95007212 4.55427551 141.06875801 C4.56310009 142.58370032 4.56676924 144.09868238 4.56500816 145.61364937 C4.56336723 147.67584451 4.57995082 149.73709741 4.60127258 151.79916382 C4.60588155 152.95509222 4.61049051 154.11102062 4.61523914 155.30197716 C4.80569577 156.63749846 4.80569577 156.63749846 5 158 C5.99 158.66 6.98 159.32 8 160 C8 160.66 8 161.32 8 162 C8.969375 162.28875 9.93875 162.5775 10.9375 162.875 C14 164 14 164 15 166 C15.44196991 169.88933523 15.15595304 171.71594267 13.25 175.1875 C8.85543237 180.68070953 8.85543237 180.68070953 4.95703125 181.3515625 C0.69325894 181.62295839 -2.12970214 181.37659584 -5.5 178.625 C-9.35613163 174.57606179 -9.34003303 171.909337 -9.28515625 166.484375 C-8.88121883 162.96513943 -7.65681221 161.28781052 -5 159 C-3.68 158.67 -2.36 158.34 -1 158 C-1 151.07 -1 144.14 -1 137 C-2.65 138.65 -4.3 140.3 -6 142 C-7.30710937 142.90141724 -7.30710937 142.90141724 -8.640625 143.82104492 C-12.6643349 146.86179201 -15.42503945 149.50463896 -16.56591797 154.45611572 C-17.31533958 160.62429606 -17.24966305 166.78518361 -17.08398438 172.98754883 C-16.99973852 176.32285222 -17.00189479 179.65013269 -17.015625 182.98632812 C-16.99465319 185.11203523 -16.96878333 187.23770089 -16.9375 189.36328125 C-16.93709717 190.35604568 -16.93669434 191.34881012 -16.9362793 192.37165833 C-16.87163208 197.38844677 -16.87163208 197.38844677 -14.63720703 201.69833374 C-12.83694016 203.22671492 -12.83694016 203.22671492 -10 205 C-8.26408848 208.47182303 -8.53428327 212.20408964 -9 216 C-10.60714774 219.15689734 -11.97438234 221.19415756 -14.75 223.375 C-18.26998011 224.35277225 -21.43553489 224.77517178 -25 224 C-28.87211388 221.64854387 -31.55582679 219.33251964 -33 215 C-33.46995626 211.50889633 -33.67927049 209.05757191 -31.73046875 206.0234375 C-27.8355615 201.41778075 -27.8355615 201.41778075 -25 200 C-25.0030162 199.3766124 -25.00603241 198.75322479 -25.00914001 198.11094666 C-25.03375893 191.6050751 -25.00951766 185.10066949 -24.95727539 178.5949707 C-24.94415975 176.16922482 -24.9433792 173.74337889 -24.95532227 171.31762695 C-24.97035925 167.82403519 -24.94061007 164.33320919 -24.90234375 160.83984375 C-24.91659897 159.76041 -24.93085419 158.68097626 -24.94554138 157.5688324 C-24.84131829 152.1121034 -24.51478046 148.8579037 -20.56665039 144.89672852 C-19.39180998 143.91411403 -18.20453972 142.9459732 -17 142 C-15.81480123 140.68311247 -14.64336369 139.35336926 -13.5 138 C-11.85590738 136.05393118 -10.27149572 134.22522058 -8.30765438 132.59610653 C-4.75977604 129.51866342 -2.58244824 127.26093496 -2.12025452 122.47572327 C-2.08258868 120.75123381 -2.08259402 119.02564878 -2.11352539 117.30102539 C-2.10274963 116.35390686 -2.09197388 115.40678833 -2.08087158 114.43096924 C-2.05359364 111.3190617 -2.07531341 108.20956944 -2.09765625 105.09765625 C-2.0882684 102.93288168 -2.0758089 100.76811844 -2.06040955 98.6033783 C-2.02820381 92.91993819 -2.03761914 87.23730557 -2.05578613 81.55383301 C-2.06694948 75.74868964 -2.03863528 69.94375242 -2.01367188 64.13867188 C-1.97053996 52.75897049 -1.97138935 41.37973138 -2 30 C-1.67 30 -1.34 30 -1 30 C-0.67 20.1 -0.34 10.2 0 0 Z " fill="#10C1D5" transform="translate(557,288)"/>
<path d="M0 0 C4.29 0 8.58 0 13 0 C13 19.8 13 39.6 13 60 C8.71 60 4.42 60 0 60 C-0.33 59.01 -0.66 58.02 -1 57 C-1.928125 57.66 -2.85625 58.32 -3.8125 59 C-8.72643517 61.78522641 -13.497341 61.76910364 -19 61 C-25.17854715 59.20588579 -29.51367952 55.34051003 -33 50 C-36.0603284 43.75357627 -36.11799797 36.30924536 -34.3828125 29.62109375 C-31.99136313 24.21387858 -27.7717699 20.38041194 -23 17 C-19.74275243 15.91425081 -17.1778466 15.76323149 -13.75 15.6875 C-12.65171875 15.65011719 -11.5534375 15.61273437 -10.421875 15.57421875 C-7 16 -7 16 0 20 C0 13.4 0 6.8 0 0 Z " fill="#101D38" transform="translate(735,707)"/>
<path d="M0 0 C4.29 0 8.58 0 13 0 C13.33 6.6 13.66 13.2 14 20 C15.98 18.68 17.96 17.36 20 16 C27.95586075 14.56273924 34.1921459 16.40373584 40.75 20.875 C45.2119605 25.08907381 46.75743458 29.18624112 47.2734375 35.171875 C47.49101811 42.83740729 47.32721691 48.22535279 42 54 C37.21762743 58.98751456 32.35162565 61.03705776 25.5 61.3125 C20.0294707 61.19277461 16.47955017 58.98636678 12 56 C12 57.32 12 58.64 12 60 C8.04 60 4.08 60 0 60 C0 40.2 0 20.4 0 0 Z " fill="#0D1A34" transform="translate(376,707)"/>
<path d="M0 0 C4.20475482 1.6997945 6.20472472 3.8425204 8 8 C8.54957375 12.31807946 8.2941115 14.44328894 6.25 18.3125 C4.11402174 20.86380737 2.92893864 21.68936149 0 23 C-0.029729 24.92525513 -0.029729 24.92525513 -0.06005859 26.8894043 C-0.13749558 31.7596851 -0.22596894 36.62971906 -0.31738281 41.49975586 C-0.3551138 43.58727056 -0.39005112 45.67483806 -0.421875 47.76245117 C-0.82105286 73.65287777 -2.33765965 100.11219745 -10 125 C-10.23170898 125.7739209 -10.46341797 126.5478418 -10.70214844 127.34521484 C-20.71334215 160.46461437 -40.30457848 196.95298682 -68 219 C-70.71875 220.19921875 -70.71875 220.19921875 -73 221 C-74.5625 219.75 -74.5625 219.75 -76 218 C-75.73154453 215.57901974 -75.32652999 214.335754 -73.6171875 212.578125 C-73.04226563 212.13984375 -72.46734375 211.7015625 -71.875 211.25 C-68.47817418 208.48835299 -65.69048733 205.5096428 -62.8671875 202.171875 C-61.59545849 200.69262536 -60.28594888 199.24522354 -58.9453125 197.828125 C-52.03195804 190.4965249 -46.47465388 182.42673243 -41 174 C-40.59217285 173.37432129 -40.1843457 172.74864258 -39.76416016 172.10400391 C-23.93141659 147.53414948 -15.53176749 119.69458801 -11 91 C-10.81743652 89.96109619 -10.63487305 88.92219238 -10.44677734 87.85180664 C-8.38694949 74.84065372 -8.54323195 61.70474495 -8.375 48.5625 C-8.3367412 46.07746145 -8.29768514 43.59243505 -8.2578125 41.10742188 C-8.16268282 35.07172378 -8.07739572 29.0359502 -8 23 C-8.78890625 22.70222656 -9.5778125 22.40445312 -10.390625 22.09765625 C-13.53918622 20.77318663 -14.4417952 20.03849935 -16 17 C-17.27522299 12.18351029 -17.54721561 9.0748878 -15.25 4.5625 C-10.62555343 -0.70423081 -6.61754229 -0.67763633 0 0 Z " fill="#76787D" transform="translate(624,363)"/>
<path d="M0 0 C4.65284831 3.15325481 6.29732952 6.93686393 7.76953125 12.19921875 C7.99658203 15.54248047 7.99658203 15.54248047 7.96484375 19.12890625 C7.95839844 20.41796875 7.95195313 21.70703125 7.9453125 23.03515625 C7.92860588 24.38151317 7.91167604 25.72786734 7.89453125 27.07421875 C7.88448789 28.44400392 7.87536442 29.81379617 7.8671875 31.18359375 C7.84367537 34.52231631 7.81081055 37.86067636 7.76953125 41.19921875 C3.80953125 41.19921875 -0.15046875 41.19921875 -4.23046875 41.19921875 C-4.56046875 40.20921875 -4.89046875 39.21921875 -5.23046875 38.19921875 C-6.15859375 38.85921875 -7.08671875 39.51921875 -8.04296875 40.19921875 C-12.94003722 42.96497199 -17.74953078 43.12579566 -23.23046875 42.19921875 C-27.67412731 40.31533761 -30.5504235 38.21928662 -33.23046875 34.19921875 C-33.88760547 29.26305226 -33.96129207 24.72441524 -31.79296875 20.19921875 C-23.92969082 14.06202622 -14.73444071 14.86113279 -5.23046875 15.19921875 C-6.36805709 11.52342369 -6.36805709 11.52342369 -9.04296875 8.90234375 C-11.54605215 8.09778123 -13.60265494 7.9331955 -16.23046875 7.94921875 C-17.49890625 7.94148437 -17.49890625 7.94148437 -18.79296875 7.93359375 C-21.38491432 8.21604936 -22.94595816 8.99985069 -25.23046875 10.19921875 C-26.22046875 10.19921875 -27.21046875 10.19921875 -28.23046875 10.19921875 C-29.22046875 7.22921875 -30.21046875 4.25921875 -31.23046875 1.19921875 C-21.22068699 -3.65400877 -10.22763716 -5.4079343 0 0 Z " fill="#0E1B36" transform="translate(647.23046875,725.80078125)"/>
<path d="M0 0 C5.99645699 3.36998952 9.4766741 8.61752231 11.625 15.0625 C11.625 18.0325 11.625 21.0025 11.625 24.0625 C0.735 24.0625 -10.155 24.0625 -21.375 24.0625 C-18.63594219 29.1061627 -18.63594219 29.1061627 -14.375 32.0625 C-8.39210036 32.89599556 -4.72701049 31.80073793 0.625 29.0625 C4.14537919 29.96774036 5.65706294 32.1105944 7.625 35.0625 C6.64229939 37.57736822 5.96122541 38.84549396 3.6640625 40.328125 C-3.90315034 43.41378461 -11.24906014 44.73787673 -19.18359375 42.14453125 C-26.04053913 38.99624578 -29.5190541 35.39040299 -33.1875 28.8125 C-35.16496772 22.5678651 -35.49033598 16.78863037 -32.6875 10.75 C-25.69919678 -1.35169582 -12.90948872 -5.59929631 0 0 Z " fill="#0F1C36" transform="translate(464.375,724.9375)"/>
<path d="M0 0 C1.87988662 1.57624698 3.39134074 3.13187957 5 5 C3.02 7.31 1.04 9.62 -1 12 C-5 11 -5 11 -7.2890625 9.46875 C-12.65827373 6.55978253 -19.08380248 7.32276789 -25 8 C-29.12990679 9.55369484 -31.32417591 12.08436736 -33.9375 15.625 C-35.68794824 21.18524737 -36.23944248 26.81664561 -34.0859375 32.34765625 C-31.53267232 36.75409777 -28.71986328 39.90228299 -24 42 C-17.25460587 42.88782041 -11.97645254 42.1711789 -6 39 C-4.68 38.34 -3.36 37.68 -2 37 C0.31 39.31 2.62 41.62 5 44 C3.86592259 47.40223222 3.30869267 47.7558437 0.375 49.5625 C-0.27726562 49.97628906 -0.92953125 50.39007812 -1.6015625 50.81640625 C-9.83443256 54.87920695 -19.80220771 55.50222251 -28.69140625 53.34765625 C-37.42145668 49.81008799 -43.122649 43.84820923 -47.08984375 35.4296875 C-49.88508853 27.96770359 -49.79443395 20.6391296 -47.02734375 13.23046875 C-43.35299751 5.25308584 -37.86954496 0.75296781 -30 -3 C-21.21623856 -6.13842457 -7.66918085 -5.39427777 0 0 Z " fill="#0F1B35" transform="translate(312,714)"/>
<path d="M0 0 C4.29 0 8.58 0 13 0 C17.54171772 9.51597998 21.41382733 19.09351592 25 29 C29.31472543 19.79392685 33.17012594 10.4146472 37 1 C40.96 1 44.92 1 49 1 C47.00058675 7.17096694 44.80110502 13.19566181 42.34765625 19.19921875 C41.83554848 20.45724052 41.83554848 20.45724052 41.31309509 21.74067688 C40.59612095 23.49841234 39.87756008 25.25550135 39.1574707 27.01196289 C38.06223455 29.68814863 36.97726928 32.36835404 35.89257812 35.04882812 C35.19072942 36.76588071 34.48827612 38.48268631 33.78515625 40.19921875 C33.46523209 40.99309494 33.14530792 41.78697113 32.81568909 42.60490417 C30.05922578 49.27792199 27.07391259 54.79498359 21 59 C15.16375752 60.94541416 8.98712842 60.80832343 3.3125 58.5 C2.549375 58.005 1.78625 57.51 1 57 C1.99 54.03 2.98 51.06 4 48 C5.32 48.33 6.64 48.66 8 49 C13.33658748 49.34627853 13.33658748 49.34627853 18 47 C17.38934809 41.60465388 15.5686641 37.13961962 13.4375 32.20703125 C13.0861499 31.37918625 12.7347998 30.55134125 12.37280273 29.69841003 C11.2546509 27.06711855 10.12764347 24.43973595 9 21.8125 C7.87423807 19.17378518 6.75029708 16.53430382 5.62719727 13.89445496 C4.92912217 12.25536511 4.22915543 10.61707932 3.52709961 8.97969055 C3.0515564 7.8678968 3.0515564 7.8678968 2.56640625 6.73364258 C2.28740479 6.08333572 2.00840332 5.43302887 1.72094727 4.76301575 C1.08198413 3.20048527 0.53383288 1.60149863 0 0 Z " fill="#0F1B34" transform="translate(320,723)"/>
<path d="M0 0 C7.33333333 3.66666667 14.66666667 7.33333333 22 11 C22.11179731 41.91733016 21.81792492 72.83246343 21.55461788 103.74831402 C21.4929842 110.99195676 21.4330624 118.23561339 21.37324238 125.47927129 C21.25065142 140.31952969 21.12604246 155.15977048 21 170 C21.78375 170.268125 22.5675 170.53625 23.375 170.8125 C26 172 26 172 28 175 C26.35 174.67 24.7 174.34 23 174 C23 173.34 23 172.68 23 172 C21.68 171.34 20.36 170.68 19 170 C18.67 118.19 18.34 66.38 18 13 C17.01 12.67 16.02 12.34 15 12 C15 53.58 15 95.16 15 138 C14.67 138 14.34 138 14 138 C14 106.32 14 74.64 14 42 C12.02 41.34 10.04 40.68 8 40 C6.54685836 39.34620962 5.10660551 38.66220825 3.6875 37.9375 C3.01074219 37.59589844 2.33398438 37.25429688 1.63671875 36.90234375 C0 36 0 36 -1 35 C-1.57793507 23.35630817 -0.6607677 11.62243184 0 0 Z " fill="#30BDCF" transform="translate(542,276)"/>
<path d="M0 0 C4.20475482 1.6997945 6.20472472 3.8425204 8 8 C8.54957375 12.31807946 8.2941115 14.44328894 6.25 18.3125 C4.11402174 20.86380737 2.92893864 21.68936149 0 23 C-0.01030746 23.57185028 -0.02061493 24.14370056 -0.03123474 24.73287964 C-0.13918315 30.66985786 -0.25379042 36.60668071 -0.37231445 42.54345703 C-0.41570078 44.76087197 -0.45737308 46.97832112 -0.49731445 49.19580078 C-0.55492754 52.37803472 -0.61864764 55.56009584 -0.68359375 58.7421875 C-0.70866249 60.23599442 -0.70866249 60.23599442 -0.73423767 61.75997925 C-0.75418289 62.68078278 -0.77412811 63.6015863 -0.79467773 64.55029297 C-0.81022202 65.3630368 -0.8257663 66.17578064 -0.84178162 67.01315308 C-1 69 -1 69 -2 71 C-2.23511148 73.82133774 -2.38206228 76.64124555 -2.5234375 79.46875 C-2.68070313 80.3040625 -2.83796875 81.139375 -3 82 C-4.485 82.99 -4.485 82.99 -6 84 C-6.99 83.67 -7.98 83.34 -9 83 C-8.505 53.3 -8.505 53.3 -8 23 C-10.475 22.01 -10.475 22.01 -13 21 C-16.30854396 18.04594289 -16.77966531 14.5035423 -17.13671875 10.25390625 C-16.91874769 6.66049763 -15.32249966 4.64506906 -13 2 C-8.74178609 -0.83880927 -4.99661255 -0.51165313 0 0 Z " fill="#78797D" transform="translate(624,363)"/>
<path d="M0 0 C3.96 0 7.92 0 12 0 C12.33 1.65 12.66 3.3 13 5 C13.78375 4.360625 14.5675 3.72125 15.375 3.0625 C19.22489621 0.03758155 21.14851318 -0.1054671 26 0 C26 3.63 26 7.26 26 11 C24.046875 11.390625 22.09375 11.78125 20.140625 12.171875 C17.26602461 13.28394668 15.94652342 14.6062753 14 17 C13.36085024 19.98687874 13.36085024 19.98687874 13.390625 23.296875 C13.35839844 24.50214844 13.32617188 25.70742188 13.29296875 26.94921875 C13.27169922 28.83060547 13.27169922 28.83060547 13.25 30.75 C13.22035156 32.01972656 13.19070313 33.28945313 13.16015625 34.59765625 C13.08946966 37.73142836 13.04246994 40.8657185 13 44 C8.71 44 4.42 44 0 44 C0 29.48 0 14.96 0 0 Z " fill="#121F39" transform="translate(486,723)"/>
<path d="M0 0 C0 3.63 0 7.26 0 11 C-1.92057292 11.35807292 -3.84114583 11.71614583 -5.76171875 12.07421875 C-9.34077825 13.55456273 -10.73505848 14.77323399 -13 18 C-13.76263561 22.43241535 -13.79076365 26.82273544 -13.8125 31.3125 C-13.83763672 32.53001953 -13.86277344 33.74753906 -13.88867188 35.00195312 C-13.94747584 38.00095519 -13.97661633 41.00051263 -14 44 C-17.96 44 -21.92 44 -26 44 C-26 29.81 -26 15.62 -26 1 C-22.37 1 -18.74 1 -15 1 C-15 2.65 -15 4.3 -15 6 C-14.34 6 -13.68 6 -13 6 C-12.67 5.01 -12.34 4.02 -12 3 C-7.8693377 0.40632832 -4.84981776 -0.34641555 0 0 Z " fill="#091630" transform="translate(694,723)"/>
<path d="M0 0 C0.31710937 0.93457031 0.63421875 1.86914062 0.9609375 2.83203125 C8.47743096 24.26898205 19.92277381 42.30184231 34.75 59.35546875 C37 62 37 62 39 65 C37.68 66.32 36.36 67.64 35 69 C27.73702646 65.74182511 22.83394859 58.87810549 18.1875 52.625 C17.67614502 51.93728516 17.16479004 51.24957031 16.63793945 50.54101562 C6.26263722 36.32783234 -4.16721112 19.62624192 -7 2 C-2.25 0 -2.25 0 0 0 Z " fill="#A1A3A9" transform="translate(419,493)"/>
<path d="M0 0 C0.33 1.32 0.66 2.64 1 4 C0.34 4 -0.32 4 -1 4 C-0.89386164 6.45224694 -0.89386164 6.45224694 0 9 C1.65438613 9.69658363 3.32254318 10.36096883 5 11 C7.91009817 14.41183923 8.53317759 17.52733597 8.35546875 22.00390625 C7.7587725 25.35458518 6.18036911 27.45623604 4 30 C-0.16254712 32.53941554 -4.24258015 32.84953926 -9 32 C-12.09632649 29.56246638 -13.82300487 27.26549269 -16 24 C-16.33834017 19.80458195 -16.43391951 17.08479877 -14.875 13.1875 C-12.57408881 10.50310361 -10.14131003 9.57065501 -7 8 C-5.3553326 5.53673288 -5.3553326 5.53673288 -4 3 C-1.8125 1.1875 -1.8125 1.1875 0 0 Z " fill="#0ED2E4" transform="translate(518,418)"/>
<path d="M0 0 C3.87300923 0.82860795 6.19978416 2.41552334 9.375 4.8125 C12.34152417 7.03948223 14.98400406 8.99220855 18.328125 10.62109375 C21 13 21 13 21.47314453 15.1887207 C21.59182882 17.90021993 21.52301722 20.54014623 21.375 23.25 C21.34792969 24.18585938 21.32085938 25.12171875 21.29296875 26.0859375 C21.22234523 28.3929724 21.12380579 30.69530769 21 33 C16.48489532 32.45120275 13.65226257 30.68917239 9.9375 28.125 C8.91527344 27.42632812 7.89304687 26.72765625 6.83984375 26.0078125 C5.90269531 25.34523438 4.96554687 24.68265625 4 24 C3.28948486 23.56437744 2.57896973 23.12875488 1.84692383 22.67993164 C0 21 0 21 -0.45410156 18.73168945 C-0.4331543 17.86761475 -0.41220703 17.00354004 -0.390625 16.11328125 C-0.37773437 15.17548828 -0.36484375 14.23769531 -0.3515625 13.27148438 C-0.31804687 12.29501953 -0.28453125 11.31855469 -0.25 10.3125 C-0.23195313 9.32443359 -0.21390625 8.33636719 -0.1953125 7.31835938 C-0.14815447 4.87793158 -0.08236042 2.43945231 0 0 Z " fill="#798081" transform="translate(512,257)"/>
<path d="M0 0 C3.71615989 1.68916359 5.83904991 3.56323474 8 7 C8.75838039 11.57258766 8.54600504 15.75198849 6.6875 20 C4.61081467 22.46125669 2.91939796 23.85196135 -0.3046875 24.37109375 C-7.28881062 24.55153462 -7.28881062 24.55153462 -11.0625 21.625 C-14.55099633 16.89865014 -14.81454198 12.78147728 -14 7 C-10.67512888 0.78447601 -6.76549684 -0.45867775 0 0 Z " fill="#F7F9FA" transform="translate(727,733)"/>
<path d="M0 0 C3.34079855 2.33788134 5.51407214 5.04122104 6.50390625 9.03125 C6.80558722 14.09170496 5.16280508 17.20463391 2 21 C-2.02314866 23.68209911 -5.27219919 23.68843415 -10 23 C-13.49890004 20.88608123 -14.70578686 19.88263941 -16 16 C-16.494097 11.89899494 -16.95235971 7.7767905 -14.953125 4.046875 C-10.47429678 -1.38041096 -6.563715 -1.94602606 0 0 Z " fill="#F7F9F9" transform="translate(405,734)"/>
<path d="M0 0 C0.33 0 0.66 0 1 0 C1 7.26 1 14.52 1 22 C3.31 22.66 5.62 23.32 8 24 C9.4375 26.125 9.4375 26.125 10 28 C10.66 28 11.32 28 12 28 C12 26.68 12 25.36 12 24 C15 25 15 25 16 27 C16.44196991 30.88933523 16.15595304 32.71594267 14.25 36.1875 C9.85543237 41.68070953 9.85543237 41.68070953 5.95703125 42.3515625 C1.69325894 42.62295839 -1.12970214 42.37659584 -4.5 39.625 C-8.35613163 35.57606179 -8.34003303 32.909337 -8.28515625 27.484375 C-7.88121883 23.96513943 -6.65681221 22.28781052 -4 20 C-2.68 19.67 -1.36 19.34 0 19 C0 12.73 0 6.46 0 0 Z " fill="#1CB7CA" transform="translate(556,427)"/>
<path d="M0 0 C0.33 0 0.66 0 1 0 C1.33 1.65 1.66 3.3 2 5 C2.99 4.01 3.98 3.02 5 2 C5.00364563 2.61752136 5.00729126 3.23504272 5.01104736 3.87127686 C5.0528403 10.29542753 5.1221633 16.71886161 5.20751953 23.14257812 C5.23575465 25.5402917 5.25695646 27.93809879 5.27099609 30.3359375 C5.29238972 33.78173797 5.3390238 37.22641095 5.390625 40.671875 C5.39185364 41.74491882 5.39308228 42.81796265 5.39434814 43.92352295 C5.41406677 44.92425842 5.4337854 45.9249939 5.45410156 46.95605469 C5.46298401 47.83541687 5.47186646 48.71477905 5.48101807 49.62078857 C6.15812888 52.7249232 7.70380161 53.88616292 10 56 C10 56.66 10 57.32 10 58 C9.38511719 57.90460938 8.77023437 57.80921875 8.13671875 57.7109375 C7.32847656 57.60007812 6.52023437 57.48921875 5.6875 57.375 C4.88699219 57.25898438 4.08648438 57.14296875 3.26171875 57.0234375 C0.71276785 56.78466593 0.71276785 56.78466593 -2 59 C-2.25015873 62.58357241 -2.25015873 62.58357241 -2 66 C-1.34 66 -0.68 66 0 66 C0 66.66 0 67.32 0 68 C1.32 68 2.64 68 4 68 C4 68.99 4 69.98 4 71 C4.66 71.33 5.32 71.66 6 72 C-3.27113703 72.3090379 -3.27113703 72.3090379 -6 70 C-7.65675435 66.27230271 -8.42156018 63.0590721 -8 59 C-6.50047302 57.18139648 -6.50047302 57.18139648 -4.55639648 55.43359375 C0.14361229 50.36420077 -0.00913465 45.7334831 -0.09765625 39.0625 C-0.07921913 37.38148193 -0.07921913 37.38148193 -0.06040955 35.66650391 C-0.02878428 32.11032856 -0.04492823 28.55623841 -0.0625 25 C-0.04938509 22.57940789 -0.03314229 20.15883058 -0.01367188 17.73828125 C0.02709241 11.82521137 0.02871237 5.91311898 0 0 Z " fill="#0ECBDD" transform="translate(534,438)"/>
<path d="M0 0 C5.8786457 2.24675513 11.387321 5.16282161 17 8 C17 14.93 17 21.86 17 29 C13.19218336 27.47687334 9.82051638 25.90128401 6.25 23.9375 C5.28578125 23.41027344 4.3215625 22.88304687 3.328125 22.33984375 C1 21 1 21 0 20 C-0.08669432 18.5112814 -0.10703494 17.018555 -0.09765625 15.52734375 C-0.09443359 14.62822266 -0.09121094 13.72910156 -0.08789062 12.80273438 C-0.07951172 11.85720703 -0.07113281 10.91167969 -0.0625 9.9375 C-0.05798828 8.98810547 -0.05347656 8.03871094 -0.04882812 7.06054688 C-0.0370011 4.70696935 -0.02052025 2.35351523 0 0 Z " fill="#B0B1B1" transform="translate(496,641)"/>
<path d="M0 0 C1.98 0.99 1.98 0.99 4 2 C4.77859375 2.25394531 5.5571875 2.50789062 6.359375 2.76953125 C9.55391179 4.16322622 10.97304506 5.10617125 13 8 C14.2046192 14.88662229 13.54037726 22.06654402 13 29 C8.59798026 26.79899013 4.30225917 24.39014398 0 22 C0 14.74 0 7.48 0 0 Z " fill="#B3B3B5" transform="translate(477,628)"/>
<path d="M0 0 C1.98036486 0.97674104 3.95926133 1.95645982 5.9375 2.9375 C7.03964844 3.48277344 8.14179687 4.02804687 9.27734375 4.58984375 C12 6 12 6 13 7 C13.08651611 8.41570123 13.10704904 9.835595 13.09765625 11.25390625 C13.09443359 12.10791016 13.09121094 12.96191406 13.08789062 13.84179688 C13.07951172 14.73962891 13.07113281 15.63746094 13.0625 16.5625 C13.05798828 17.46419922 13.05347656 18.36589844 13.04882812 19.29492188 C13.03700225 21.53001314 13.0205222 23.76497437 13 26 C8.02898687 25.53396752 3.45272492 23.63049915 0 20 C-0.97744185 16.51562841 -0.76342124 13.27154865 -0.5 9.6875 C-0.46390625 8.75615234 -0.4278125 7.82480469 -0.390625 6.86523438 C-0.29656746 4.57258193 -0.16539029 2.28842909 0 0 Z " fill="#7A7F7E" transform="translate(542,276)"/>
<path d="M0 0 C0.99 0.33 1.98 0.66 3 1 C4.1875 3.5625 4.1875 3.5625 5 6 C-17.41975309 26 -17.41975309 26 -25 26 C-25.45462621 22.89020389 -25.61301772 20.09564198 -25 17 C-22.91591517 14.58922079 -20.37305641 13.31872993 -17.5625 11.875 C-16.08876535 11.0471925 -14.61739253 10.2151659 -13.1484375 9.37890625 C-12.07674316 8.78166748 -12.07674316 8.78166748 -10.98339844 8.17236328 C-7.59335161 6.16854683 -4.66096582 3.65974039 -1.69921875 1.08203125 C-0.85810547 0.54642578 -0.85810547 0.54642578 0 0 Z " fill="#76777B" transform="translate(537,587)"/>
<path d="M0 0 C0.99 0.33 1.98 0.66 3 1 C3.02333829 16.74189671 3.04098376 32.48378877 3.05181217 48.22569847 C3.05697315 55.53458611 3.06401208 62.843463 3.07543945 70.15234375 C3.08539234 76.52117438 3.09185487 82.88999724 3.09408849 89.25883543 C3.09539457 92.63251115 3.09847394 96.00616462 3.10573006 99.37983322 C3.11294496 103.14174491 3.11399075 106.90360989 3.11352539 110.66552734 C3.11712067 111.78977615 3.12071594 112.91402496 3.12442017 114.07234192 C3.1230455 115.09320389 3.12167084 116.11406586 3.12025452 117.16586304 C3.12117631 118.05631506 3.1220981 118.94676708 3.12304783 119.8642025 C3 122 3 122 2 124 C1.34 124 0.68 124 0 124 C0 83.08 0 42.16 0 0 Z " fill="#002F4A" transform="translate(563,322)"/>
<path d="M0 0 C2.51235884 1.32229412 4.55434266 2.42701199 6.3125 4.6875 C7.86127602 9.89701933 7.70539094 13.63960319 5.25 18.375 C2.58738995 21.48137839 0.75077524 22.85506827 -3.359375 23.1953125 C-4.54273438 23.16050781 -4.54273438 23.16050781 -5.75 23.125 C-6.54921875 23.10695313 -7.3484375 23.08890625 -8.171875 23.0703125 C-8.77515625 23.04710937 -9.3784375 23.02390625 -10 23 C-10 22.67 -10 22.34 -10 22 C-7.36 22 -4.72 22 -2 22 C-2.33 21.01 -2.66 20.02 -3 19 C-3.94875 18.896875 -4.8975 18.79375 -5.875 18.6875 C-9 18 -9 18 -11 15 C-11.25760279 12.30547479 -11.08900053 9.71451625 -11 7 C-7.59677126 4.90570539 -4.96047946 4.66293792 -1 5 C2.0109362 7.0072908 2.63016497 7.83884224 4 11 C4 8.69 4 6.38 4 4 C2.68 3.34 1.36 2.68 0 2 C0 1.34 0 0.68 0 0 Z " fill="#1EC5D6" transform="translate(519,427)"/>
<path d="M0 0 C3.96 0 7.92 0 12 0 C12 0.33 12 0.66 12 1 C11.43410156 1.13277344 10.86820312 1.26554687 10.28515625 1.40234375 C9.18494141 1.66724609 9.18494141 1.66724609 8.0625 1.9375 C6.96615234 2.19853516 6.96615234 2.19853516 5.84765625 2.46484375 C4.00030102 2.83887569 4.00030102 2.83887569 3 4 C2.9064081 5.71865409 2.88255389 7.44115744 2.88647461 9.16235352 C2.88655014 10.26341934 2.88662567 11.36448517 2.88670349 12.49891663 C2.89186478 13.6968132 2.89702606 14.89470978 2.90234375 16.12890625 C2.9037587 17.34827377 2.90517365 18.5676413 2.90663147 19.82395935 C2.91225033 23.7368307 2.92480604 27.64964581 2.9375 31.5625 C2.94251257 34.20768147 2.9470759 36.85286383 2.95117188 39.49804688 C2.96222589 45.99871974 2.97950317 52.49935032 3 59 C9.27 59.33 15.54 59.66 22 60 C21.67 54.06 21.34 48.12 21 42 C21.99 42 22.98 42 24 42 C24 48.6 24 55.2 24 62 C16.08 62 8.16 62 0 62 C0 41.54 0 21.08 0 0 Z " fill="#313F59" transform="translate(381,342)"/>
<path d="M0 0 C4.96744531 1.88815861 9.38218598 4.3809413 14 7 C14 11.62 14 16.24 14 21 C10.19425464 20.23885093 8.02412335 19.69954494 4.75 18 C3.72132813 17.4740625 3.72132813 17.4740625 2.671875 16.9375 C1 16 1 16 0 15 C-0.07313567 12.46950598 -0.09247527 9.96695163 -0.0625 7.4375 C-0.05798828 6.72658203 -0.05347656 6.01566406 -0.04882812 5.28320312 C-0.03700864 3.52209987 -0.01907263 1.76103964 0 0 Z " fill="#FAFCFC" transform="translate(541,296)"/>
<path d="M0 0 C0.66 0.33 1.32 0.66 2 1 C2.33 0.34 2.66 -0.32 3 -1 C4.8601319 2.82968331 5.19497828 4.91715756 4 9 C3.731875 10.051875 3.46375 11.10375 3.1875 12.1875 C2 15 2 15 0.375 16.375 C-3.12500295 17.29605341 -6.41643825 17.63152932 -10 17 C-12.5 15 -12.5 15 -14 13 C-10.7 13.33 -7.4 13.66 -4 14 C-4 13.01 -4 12.02 -4 11 C-5.32 11 -6.64 11 -8 11 C-8 10.34 -8 9.68 -8 9 C-8.66 9 -9.32 9 -10 9 C-10.33 6.69 -10.66 4.38 -11 2 C-7.37296425 -1.62703575 -4.81964094 -1.07103132 0 0 Z " fill="#17C3D4" transform="translate(542,495)"/>
<path d="M0 0 C6.27 0 12.54 0 19 0 C19 3.63 19 7.26 19 11 C12.73 11 6.46 11 0 11 C0 7.37 0 3.74 0 0 Z " fill="#B3B4B5" transform="translate(350,411)"/>
<path d="M0 0 C1.3125 2.0625 1.3125 2.0625 2 4 C2.66 4 3.32 4 4 4 C4 2.68 4 1.36 4 0 C7 1 7 1 8 3 C8.44196991 6.88933523 8.15595304 8.71594267 6.25 12.1875 C2.61946903 16.72566372 2.61946903 16.72566372 0 18 C-3.01763028 18.23534378 -5.98038766 18.1742084 -9 18 C-9 17.67 -9 17.34 -9 17 C-8.06027344 16.85304688 -8.06027344 16.85304688 -7.1015625 16.703125 C-6.28429687 16.55359375 -5.46703125 16.4040625 -4.625 16.25 C-3.81289063 16.11078125 -3.00078125 15.9715625 -2.1640625 15.828125 C0.17709092 15.18250739 0.17709092 15.18250739 1.2890625 12.921875 C1.52367187 12.28765625 1.75828125 11.6534375 2 11 C1.29875 11.391875 0.5975 11.78375 -0.125 12.1875 C-3 13 -3 13 -6.25 12 C-9 10 -9 10 -10 7.0625 C-10 3.94833811 -9.83986621 2.48381939 -8 0 C-4.66411172 -1.11196276 -3.29427581 -1.09809194 0 0 Z " fill="#1BB6C9" transform="translate(564,451)"/>
<path d="M0 0 C1.98 0.99 1.98 0.99 4 2 C4 4 4 4 3.50610352 6.65708923 C2.95143461 10.32078372 2.88746221 13.78108411 2.90234375 17.48657227 C2.90380402 18.21093475 2.90526428 18.93529724 2.9067688 19.68161011 C2.91055652 21.24482983 2.91665357 22.80804534 2.92483521 24.37124825 C2.93765988 26.84727462 2.94412981 29.32324709 2.94897461 31.79930115 C2.96037192 37.05372503 2.9796174 42.30810429 3 47.5625 C3.02362371 53.65686165 3.04400505 59.75119769 3.05593872 65.84559441 C3.06240666 68.2812582 3.07491278 70.71684317 3.08764648 73.15248108 C3.0912799 74.64926078 3.09463152 76.14604121 3.09765625 77.64282227 C3.10289307 78.94598892 3.10812988 80.24915558 3.11352539 81.59181213 C3.01532861 84.53981406 2.69188607 87.14197272 2 90 C1.34 90 0.68 90 0 90 C0 60.3 0 30.6 0 0 Z " fill="#07415A" transform="translate(540,311)"/>
<path d="M0 0 C1.32 0.66 2.64 1.32 4 2 C4.02760212 5.0208986 4.04712053 8.04153232 4.0625 11.0625 C4.07087891 11.89072266 4.07925781 12.71894531 4.08789062 13.57226562 C4.1068231 18.58937052 3.90276476 23.53418886 3.50488281 28.53588867 C2.86185766 37.46914502 2.84861933 46.39447053 2.83133507 55.34708405 C2.82405784 58.33161553 2.80831973 61.31599293 2.78999329 64.30047607 C2.73798085 72.77305283 2.68942287 81.24552788 2.67407227 89.71826172 C2.66401942 94.9293288 2.63479602 100.13998033 2.59275246 105.35088348 C2.58043193 107.33004372 2.57532311 109.30926245 2.57755089 111.28845978 C2.57989151 114.04074684 2.55784424 116.7918217 2.5300293 119.54394531 C2.53663071 120.36051102 2.54323212 121.17707672 2.55003357 122.01838684 C2.4579647 127.54307673 2.4579647 127.54307673 -0.03312683 130.02850342 C-0.68219498 130.34909729 -1.33126312 130.66969116 -2 131 C-2 130.01 -2 129.02 -2 128 C-1.34 128 -0.68 128 0 128 C0 85.76 0 43.52 0 0 Z " fill="#2FC3D6" transform="translate(538,274)"/>
<path d="M0 0 C0.33 0.66 0.66 1.32 1 2 C-0.65 4.31 -2.3 6.62 -4 9 C-2.35 7.68 -0.7 6.36 1 5 C2.32 5.66 3.64 6.32 5 7 C4.10796875 7.88042969 3.2159375 8.76085937 2.296875 9.66796875 C1.11444899 10.84101043 -0.06783519 12.01419509 -1.25 13.1875 C-1.83652344 13.76564453 -2.42304687 14.34378906 -3.02734375 14.93945312 C-9.62467207 21.01603481 -9.62467207 21.01603481 -13 29 C-13.33 29 -13.66 29 -14 29 C-14 27.02 -14 25.04 -14 23 C-13.34 23 -12.68 23 -12 23 C-12.33 22.01 -12.66 21.02 -13 20 C-13.78375 20.78375 -14.5675 21.5675 -15.375 22.375 C-16.91666667 23.91666667 -18.45833333 25.45833333 -20 27 C-20.4296875 24.44921875 -20.4296875 24.44921875 -20 21 C-18.01900009 18.27782506 -15.60052348 16.08213356 -13.125 13.8125 C-11.8340438 12.5918434 -10.54490584 11.36926027 -9.2578125 10.14453125 C-8.6817627 9.61190674 -8.10571289 9.07928223 -7.51220703 8.53051758 C-5.77655917 6.87090147 -5.77655917 6.87090147 -4 4 C-3.34 4 -2.68 4 -2 4 C-1.34 2.68 -0.68 1.36 0 0 Z " fill="#1ABED2" transform="translate(531,399)"/>
<path d="M0 0 C0.66 0 1.32 0 2 0 C2 20.13 2 40.26 2 61 C1.01 61.495 1.01 61.495 0 62 C-1.04797573 58.85607282 -1.12682255 56.65072794 -1.12939453 53.35107422 C-1.13254669 52.19332489 -1.13569885 51.03557556 -1.13894653 49.84274292 C-1.1369223 48.59268463 -1.13489807 47.34262634 -1.1328125 46.0546875 C-1.13376923 44.77393341 -1.13472595 43.49317932 -1.13571167 42.1736145 C-1.13718512 39.46517733 -1.13504472 36.75677317 -1.13037109 34.04833984 C-1.12466259 30.57002588 -1.12796209 27.09178888 -1.13394356 23.61347771 C-1.13841554 20.30220804 -1.13528973 16.99095935 -1.1328125 13.6796875 C-1.13584885 11.79852737 -1.13584885 11.79852737 -1.13894653 9.87936401 C-1.13579437 8.72791901 -1.13264221 7.576474 -1.12939453 6.39013672 C-1.12859894 5.37104218 -1.12780334 4.35194763 -1.12698364 3.30197144 C-1 1 -1 1 0 0 Z " fill="#0AD1E2" transform="translate(536,276)"/>
<path d="M0 0 C1.32 0.33 2.64 0.66 4 1 C4.07402793 6.51754805 4.12854366 12.03480856 4.16479492 17.55273438 C4.17990325 19.43071526 4.20039094 21.30866076 4.22631836 23.18652344 C4.26261246 25.88225019 4.27970545 28.57751146 4.29296875 31.2734375 C4.30845261 32.11619232 4.32393646 32.95894714 4.33988953 33.82723999 C4.34057617 36.19287109 4.34057617 36.19287109 4 40 C3.01 40.66 2.02 41.32 1 42 C-0.69196504 38.61606992 -0.11986549 34.77522209 -0.09765625 31.0546875 C-0.0962413 30.1696756 -0.09482635 29.2846637 -0.09336853 28.37283325 C-0.0877614 25.54018809 -0.07520771 22.70762136 -0.0625 19.875 C-0.05748592 17.95703239 -0.05292285 16.03906354 -0.04882812 14.12109375 C-0.03778966 9.41403218 -0.02052025 4.7070294 0 0 Z " fill="#0BCCDE" transform="translate(557,288)"/>
<path d="M0 0 C3.0625 1.6875 3.0625 1.6875 5 4 C5.33 5.65 5.66 7.3 6 9 C-1.26 9 -8.52 9 -16 9 C-12.96858922 -0.09423235 -9.10097095 -1.32538412 0 0 Z " fill="#E4E8EB" transform="translate(458,733)"/>
<path d="M0 0 C1.27617188 0.02320313 2.55234375 0.04640625 3.8671875 0.0703125 C5.78917969 0.09738281 5.78917969 0.09738281 7.75 0.125 C9.23113281 0.15980469 9.23113281 0.15980469 10.7421875 0.1953125 C10.9765625 5.90625 10.9765625 5.90625 8.8671875 8.5078125 C5.10869391 11.49249859 2.53372996 11.60837651 -2.2578125 11.1953125 C-4.7578125 9.5078125 -4.7578125 9.5078125 -6.2578125 7.1953125 C-6.03317424 2.47790914 -4.9392313 0.29611698 0 0 Z " fill="#F1F5F7" transform="translate(631.2578125,748.8046875)"/>
<path d="M0 0 C2.475 0.99 2.475 0.99 5 2 C3.68 2.33 2.36 2.66 1 3 C1 44.25 1 85.5 1 128 C0.34 127.67 -0.32 127.34 -1 127 C-1.0232986 113.24669601 -1.04100359 99.49339682 -1.05181217 85.74007702 C-1.057003 79.3520201 -1.06403057 72.96397681 -1.07543945 66.57592773 C-1.0864047 60.39672527 -1.09230536 54.21753581 -1.09487724 48.03832436 C-1.09670716 45.69555774 -1.10027974 43.35279174 -1.10573006 41.01003075 C-1.13631363 27.30326196 -0.90334926 13.67904189 0 0 Z " fill="#36A8BE" transform="translate(533,271)"/>
<path d="M0 0 C0.99 0.33 1.98 0.66 3 1 C3.03449069 8.15390981 3.01462498 15.3062019 2.95727539 22.45996094 C2.94414995 24.8925428 2.9433882 27.3252245 2.95532227 29.7578125 C2.9703388 33.25881115 2.94064291 36.75704063 2.90234375 40.2578125 C2.92372658 41.88470505 2.92372658 41.88470505 2.94554138 43.54446411 C2.80333952 50.99016975 2.80333952 50.99016975 0.41677856 53.99017334 C-1.49389648 55.60888672 -1.49389648 55.60888672 -3.40281677 56.90499878 C-5.16303917 57.92205649 -5.16303917 57.92205649 -6 60 C-6.06950541 61.54023996 -6.08452357 63.08334988 -6.0625 64.625 C-6.05347656 65.44226563 -6.04445313 66.25953125 -6.03515625 67.1015625 C-6.02355469 67.72804688 -6.01195312 68.35453125 -6 69 C-6.66 68.67 -7.32 68.34 -8 68 C-8.05416188 66.39620659 -8.09286638 64.79188594 -8.125 63.1875 C-8.15980469 61.84751953 -8.15980469 61.84751953 -8.1953125 60.48046875 C-8 58 -8 58 -6 55 C-5.34 55 -4.68 55 -4 55 C-3.67 54.01 -3.34 53.02 -3 52 C-2.01 52 -1.02 52 0 52 C0 34.84 0 17.68 0 0 Z " fill="#014661" transform="translate(531,436)"/>
<path d="M0 0 C2.475 0.495 2.475 0.495 5 1 C4.01 2.485 4.01 2.485 3 4 C2.68974507 6.43005199 2.68974507 6.43005199 2.7253418 9.17407227 C2.71580978 10.22849014 2.70627777 11.28290802 2.69645691 12.36927795 C2.69736832 13.50683029 2.69827972 14.64438263 2.69921875 15.81640625 C2.69493362 16.98380844 2.6906485 18.15121063 2.68623352 19.35398865 C2.68048771 21.82281851 2.67999179 24.2916653 2.68432617 26.76049805 C2.68749032 30.5509096 2.66401446 34.34054415 2.63867188 38.13085938 C2.63639945 40.52604068 2.63569512 42.92122409 2.63671875 45.31640625 C2.627509 46.45598282 2.61829926 47.59555939 2.60881042 48.76966858 C2.61503922 49.8209343 2.62126801 50.87220001 2.62768555 51.95532227 C2.62705612 52.88337173 2.6264267 53.8114212 2.6257782 54.76759338 C2.74927139 55.50428757 2.87276459 56.24098175 3 57 C3.99 57.66 4.98 58.32 6 59 C3.03 59.495 3.03 59.495 0 60 C0 40.2 0 20.4 0 0 Z " fill="#333B4D" transform="translate(376,707)"/>
<path d="M0 0 C1.32 0 2.64 0 4 0 C4 0.66 4 1.32 4 2 C3.01 2.495 3.01 2.495 2 3 C1.67 43.26 1.34 83.52 1 125 C0.67 125 0.34 125 0 125 C0 83.75 0 42.5 0 0 Z " fill="#22C6D9" transform="translate(534,274)"/>
<path d="M0 0 C0.33 0 0.66 0 1 0 C1.11576726 12.57804744 1.20465137 25.15596848 1.25906086 37.73443985 C1.28517265 43.57494146 1.32060035 49.41507902 1.37719727 55.25537109 C1.43145944 60.88989599 1.46140861 66.52407038 1.47438622 72.15883636 C1.48363643 74.31030548 1.50169976 76.46175506 1.52865028 78.61307526 C1.56486291 81.62300819 1.56994852 84.63148642 1.56762695 87.64160156 C1.58560333 88.5342421 1.60357971 89.42688263 1.62210083 90.34657288 C1.57131685 96.41754666 1.57131685 96.41754666 -1.53547668 99.5848999 C-2.34876938 100.05188293 -3.16206207 100.51886597 -4 101 C-3.67 99.68 -3.34 98.36 -3 97 C-2.34 97 -1.68 97 -1 97 C-1.00580078 95.94014893 -1.01160156 94.88029785 -1.01757812 93.78833008 C-1.08151792 75.63274804 -0.78827884 57.48061293 -0.53643799 39.32733154 C-0.47507354 34.88164656 -0.41534855 30.43593956 -0.35546875 25.99023438 C-0.23854661 17.32680107 -0.11986255 8.66339312 0 0 Z " fill="#002742" transform="translate(554,318)"/>
<path d="M0 0 C0.33 0 0.66 0 1 0 C1.01458252 0.74685059 1.02916504 1.49370117 1.04418945 2.26318359 C1.11847946 5.63432252 1.21520199 9.00445005 1.3125 12.375 C1.33505859 13.550625 1.35761719 14.72625 1.38085938 15.9375 C1.41630859 17.05898438 1.45175781 18.18046875 1.48828125 19.3359375 C1.51446533 20.37282715 1.54064941 21.4097168 1.56762695 22.47802734 C1.71031006 23.31027832 1.85299316 24.1425293 2 25 C2.99 25.66 3.98 26.32 5 27 C5 27.66 5 28.32 5 29 C5.99 29.33 6.98 29.66 8 30 C8 31.32 8 32.64 8 34 C7.34 34 6.68 34 6 34 C5.5875 33.38125 5.175 32.7625 4.75 32.125 C2.76516785 29.33140146 2.76516785 29.33140146 -3 28 C-3.33 20.08 -3.66 12.16 -4 4 C-3.01 4.495 -3.01 4.495 -2 5 C-2 7.31 -2 9.62 -2 12 C-1.34 12 -0.68 12 0 12 C0 8.04 0 4.08 0 0 Z " fill="#0ACADB" transform="translate(560,421)"/>
<path d="M0 0 C0.144375 0.94875 0.28875 1.8975 0.4375 2.875 C1.63825161 6.07105323 1.63825161 6.07105323 3.9609375 6.94921875 C7.99123108 8.0003086 10.18989617 8.36372009 14.0625 6.625 C14.701875 6.08875 15.34125 5.5525 16 5 C15.1342843 7.66929007 14.27808762 9.67741836 12.4375 11.8125 C8.6653578 13.6502103 5.1111397 13.65627368 1 13 C-1.5625 11.5 -1.5625 11.5 -3 9 C-3.31058001 6.24162839 -3.18622842 3.79342627 -3 1 C-1 0 -1 0 0 0 Z " fill="#15C8DB" transform="translate(552,455)"/>
<path d="M0 0 C0.66 0 1.32 0 2 0 C1.67 0.886875 1.34 1.77375 1 2.6875 C0.08777857 5.70923347 -0.18330958 7.88373706 0 11 C0.66 9.35 1.32 7.7 2 6 C2.33 6 2.66 6 3 6 C3.144375 7.093125 3.28875 8.18625 3.4375 9.3125 C3.88288104 12.93122987 3.88288104 12.93122987 5 16 C7.31 16 9.62 16 12 16 C12 17.32 12 18.64 12 20 C3.99173554 20.78512397 3.99173554 20.78512397 0 17.625 C-3.16691153 13.46842861 -3.57126128 10.15120086 -3 5 C-1.625 2 -1.625 2 0 0 Z " fill="#18CBDD" transform="translate(505,429)"/>
<path d="M0 0 C1.98 0.99 1.98 0.99 4 2 C4.10709533 13.72098848 3.99140649 25.31556633 3 37 C2.34 37 1.68 37 1 37 C0.67 24.79 0.34 12.58 0 0 Z " fill="#46B9C2" transform="translate(538,274)"/>
<path d="M0 0 C1.875 1.125 1.875 1.125 3 3 C2.875 6.0625 2.875 6.0625 2 9 C-1 11 -1 11 -3.5625 10.75 C-6 10 -6 10 -8 8 C-8.36487512 5.15397406 -8.40199375 3.6135694 -6.8125 1.1875 C-4.35092224 -0.42525784 -2.88934264 -0.4334014 0 0 Z " fill="#131A2F" transform="translate(622,369)"/>
<path d="M0 0 C6.57692308 0.57692308 6.57692308 0.57692308 8 2 C8.45378151 7.21848739 8.45378151 7.21848739 6.875 9.9375 C5 11 5 11 1.875 10.8125 C0.92625 10.544375 -0.0225 10.27625 -1 10 C-2.38125018 7.23749964 -2.19079306 5.05268901 -2 2 C-1.34 1.34 -0.68 0.68 0 0 Z " fill="#253048" transform="translate(454,458)"/>
<path d="M0 0 C0.33 0 0.66 0 1 0 C0.99920441 0.5902446 0.99840881 1.1804892 0.99758911 1.78862 C0.99514957 7.93732956 1.03435702 14.08477738 1.09765625 20.2331543 C1.11581408 22.52703996 1.12338516 24.82103503 1.12011719 27.11499023 C1.11725963 30.41476043 1.15258169 33.71226266 1.1953125 37.01171875 C1.18621857 38.03585373 1.17712463 39.05998871 1.16775513 40.11515808 C1.1421429 45.26548506 1.1421429 45.26548506 3.35394287 49.72061157 C5.15296297 51.24990519 5.15296297 51.24990519 8 53 C9.71535658 56.43071316 9.4006478 60.24058819 9 64 C7.5 66.5625 7.5 66.5625 6 68 C6.08378906 67.39671875 6.16757812 66.7934375 6.25390625 66.171875 C6.40666016 64.97304688 6.40666016 64.97304688 6.5625 63.75 C6.66691406 62.96109375 6.77132812 62.1721875 6.87890625 61.359375 C7.00384065 58.92516937 6.88693373 57.26822395 6 55 C5.01 54.34 4.02 53.68 3 53 C3 52.34 3 51.68 3 51 C2.01 50.67 1.02 50.34 0 50 C0 33.5 0 17 0 0 Z " fill="#29B3C8" transform="translate(539,440)"/>
<path d="M0 0 C2.5625 0.3125 2.5625 0.3125 4.4375 1.5 C5.5625 3.3125 5.5625 3.3125 5.375 5.875 C4.5625 8.3125 4.5625 8.3125 2.5625 10.3125 C-0.4375 10.625 -0.4375 10.625 -3.4375 10.3125 C-5.4375 7.3125 -5.4375 7.3125 -5.1875 4.75 C-4.19253762 1.51637226 -3.41216263 0.43745675 0 0 Z " fill="#002239" transform="translate(559.4375,451.6875)"/>
<path d="M0 0 C3 0.25 3 0.25 5 2.25 C5.25 5.25 5.25 5.25 5 8.25 C3 10.25 3 10.25 0 10.5 C-3 10.25 -3 10.25 -5 8.25 C-5.25 5.25 -5.25 5.25 -5 2.25 C-3 0.25 -3 0.25 0 0 Z " fill="#013044" transform="translate(514,432.75)"/>
<path d="M0 0 C3 0.25 3 0.25 5 2.25 C5.25 5.25 5.25 5.25 5 8.25 C3 10.25 3 10.25 0 10.5 C-3 10.25 -3 10.25 -5 8.25 C-5.25 5.25 -5.25 5.25 -5 2.25 C-3 0.25 -3 0.25 0 0 Z " fill="#162343" transform="translate(408,366.75)"/>
<path d="M0 0 C3 0.25 3 0.25 5 2.25 C5.25 5.25 5.25 5.25 5 8.25 C4.34 8.91 3.68 9.57 3 10.25 C-0.625 9.875 -0.625 9.875 -4 9.25 C-4.625 5.875 -4.625 5.875 -5 2.25 C-3 0.25 -3 0.25 0 0 Z " fill="#003A50" transform="translate(536,494.75)"/>
<path d="M0 0 C0 3.92709135 -1.27900462 4.8189713 -3.875 7.6875 C-4.59429688 8.49574219 -5.31359375 9.30398438 -6.0546875 10.13671875 C-8 12 -8 12 -10 12 C-10 27.51 -10 43.02 -10 59 C-10.33 59 -10.66 59 -11 59 C-11.28086114 52.36650099 -11.47232045 45.73455257 -11.60424805 39.09643555 C-11.65928262 36.84292324 -11.73414091 34.58979864 -11.82983398 32.33764648 C-12.68962983 11.56920888 -12.68962983 11.56920888 -7.01582336 5.38105774 C-4.81089684 3.36675849 -2.50716142 1.6191067 0 0 Z " fill="#003D55" transform="translate(551,429)"/>
<path d="M0 0 C0.671875 1.796875 0.671875 1.796875 1 4 C-0.109375 5.703125 -0.109375 5.703125 -1.75 7.25 C-2.54664063 8.03117187 -2.54664063 8.03117187 -3.359375 8.828125 C-5 10 -5 10 -8 10 C-8.226875 10.556875 -8.45375 11.11375 -8.6875 11.6875 C-10.35144976 14.619221 -12.6259006 16.6259006 -15 19 C-15 19.66 -15 20.32 -15 21 C-14.01 21.66 -13.02 22.32 -12 23 C-12.33 23.66 -12.66 24.32 -13 25 C-14.65 23.68 -16.3 22.36 -18 21 C-14.41995507 12.76021406 -6.36575877 6.18154067 0 0 Z " fill="#013B53" transform="translate(536,405)"/>
<path d="M0 0 C2.31 0.66 4.62 1.32 7 2 C6.01 2.33 5.02 2.66 4 3 C4.33 7.29 4.66 11.58 5 16 C2.525 15.01 2.525 15.01 0 14 C0 9.38 0 4.76 0 0 Z " fill="#D7FBFB" transform="translate(563,307)"/>
<path d="M0 0 C0.33 0.99 0.66 1.98 1 3 C0.3503125 3.56267578 0.3503125 3.56267578 -0.3125 4.13671875 C-3.95316594 7.34762155 -3.95316594 7.34762155 -5.4375 11.8125 C-5.21667976 13.9682203 -5.21667976 13.9682203 -4 15 C-3.95936168 16.66617115 -3.957279 18.33388095 -4 20 C-7 18 -7 18 -8 15 C-8.46995626 11.50889633 -8.67927049 9.05757191 -6.73046875 6.0234375 C-2.8355615 1.41778075 -2.8355615 1.41778075 0 0 Z " fill="#20BDD2" transform="translate(532,488)"/>
<path d="M0 0 C0.66 0.66 1.32 1.32 2 2 C1.67 2.33 1.34 2.66 1 3 C0.63239269 5.32817964 0.29758419 7.6618385 0 10 C-0.969375 10.268125 -1.93875 10.53625 -2.9375 10.8125 C-3.948125 11.204375 -4.95875 11.59625 -6 12 C-6.33 12.99 -6.66 13.98 -7 15 C-7.33 13.68 -7.66 12.36 -8 11 C-7.01 10.67 -6.02 10.34 -5 10 C-4.29373761 8.01363702 -3.63106429 6.01151741 -3 4 C-1.375 1.625 -1.375 1.625 0 0 Z " fill="#034166" transform="translate(511,417)"/>
<path d="M0 0 C2.475 0.99 2.475 0.99 5 2 C3.68 2.33 2.36 2.66 1 3 C1 13.89 1 24.78 1 36 C0.34 35.67 -0.32 35.34 -1 35 C-1.14534014 23.29204426 -0.71125207 11.68485544 0 0 Z " fill="#40BAC4" transform="translate(533,271)"/>
<path d="M0 0 C0 0.33 0 0.66 0 1 C-7 2 -7 2 -14 3 C-14.6688623 3.09555176 -15.33772461 3.19110352 -16.02685547 3.28955078 C-17.68457031 3.52636719 -19.34228516 3.76318359 -21 4 C-21 5.32 -21 6.64 -21 8 C-21.66 8 -22.32 8 -23 8 C-23.33 6.68 -23.66 5.36 -24 4 C-15.97331823 -0.1428035 -8.92981438 -0.46321804 0 0 Z " fill="#283041" transform="translate(640,723)"/>
<path d="M0 0 C0.66 0 1.32 0 2 0 C2 6.27 2 12.54 2 19 C1.01 19 0.02 19 -1 19 C-0.67 12.73 -0.34 6.46 0 0 Z " fill="#5D8B91" transform="translate(553,283)"/>
<path d="M0 0 C1.98 0 3.96 0 6 0 C6.33 2.31 6.66 4.62 7 7 C4.37886292 7 2.49064888 6.68707555 0 6 C0 4.02 0 2.04 0 0 Z " fill="#16254B" transform="translate(454,460)"/>
<path d="M0 0 C1.65 0 3.3 0 5 0 C4.01 0.495 4.01 0.495 3 1 C2.59270772 3.32156597 2.25561323 5.6568787 2 8 C5.63 8 9.26 8 13 8 C13 8.33 13 8.66 13 9 C8.71 9 4.42 9 0 9 C0 6.03 0 3.06 0 0 Z " fill="#162543" transform="translate(369,412)"/>
<path d="M0 0 C0.66 0.33 1.32 0.66 2 1 C2 5.62 2 10.24 2 15 C0.35 14.67 -1.3 14.34 -3 14 C-2.68289063 13.44828125 -2.36578125 12.8965625 -2.0390625 12.328125 C-0.87290025 9.71522011 -0.59954289 7.59420998 -0.375 4.75 C-0.30023437 3.85796875 -0.22546875 2.9659375 -0.1484375 2.046875 C-0.09945312 1.37140625 -0.05046875 0.6959375 0 0 Z " fill="#D4FBFB" transform="translate(553,302)"/>
<path d="M0 0 C0.66 0.66 1.32 1.32 2 2 C4.37098906 2.28108663 4.37098906 2.28108663 7 2.1875 C7.886875 2.18105469 8.77375 2.17460938 9.6875 2.16796875 C12.02606345 2.14581927 12.02606345 2.14581927 14 1 C14 2.32 14 3.64 14 5 C9.38 5 4.76 5 0 5 C0 3.35 0 1.7 0 0 Z " fill="#0A1424" transform="translate(577,762)"/>
<path d="M0 0 C6.875 0.875 6.875 0.875 8 2 C8.47058824 8.23529412 8.47058824 8.23529412 6.5 11.4375 C6.005 11.953125 5.51 12.46875 5 13 C2.03 12.505 2.03 12.505 -1 12 C-1 11.67 -1 11.34 -1 11 C0.98 10.34 2.96 9.68 5 9 C5 7.02 5 5.04 5 3 C2.525 2.01 2.525 2.01 0 1 C0 0.67 0 0.34 0 0 Z " fill="#22B0C1" transform="translate(535,494)"/>
<path d="M0 0 C1.98 0 3.96 0 6 0 C6 1.98 6 3.96 6 6 C4.33388095 6.042721 2.66617115 6.04063832 1 6 C0 5 0 5 -0.0625 2.4375 C-0.041875 1.633125 -0.02125 0.82875 0 0 Z " fill="#001831" transform="translate(533,497)"/>
<path d="M0 0 C0 1.32 0 2.64 0 4 C-2.64 4 -5.28 4 -8 4 C-8.66 2.68 -9.32 1.36 -10 0 C-6.7169902 -1.6415049 -3.57454967 -0.51888624 0 0 Z " fill="#11D6E5" transform="translate(517,445)"/>
<path d="M0 0 C5.625 -0.25 5.625 -0.25 9 2 C9.36328125 3.875 9.36328125 3.875 9.3125 6 C9.30863281 6.70125 9.30476562 7.4025 9.30078125 8.125 C9 10 9 10 7 12 C3.875 12.125 3.875 12.125 1 12 C1.639375 11.690625 2.27875 11.38125 2.9375 11.0625 C4.93610821 10.1654837 4.93610821 10.1654837 6 9 C6.04080783 7.00041636 6.04254356 4.99954746 6 3 C4.02 2.34 2.04 1.68 0 1 C0 0.67 0 0.34 0 0 Z " fill="#22B1C3" transform="translate(512,432)"/>
<path d="M0 0 C0.78375 0.04125 1.5675 0.0825 2.375 0.125 C1.55 0.8675 0.725 1.61 -0.125 2.375 C-3.07344853 4.99887385 -3.07344853 4.99887385 -2.625 9.125 C-0.975 9.125 0.675 9.125 2.375 9.125 C2.375 9.455 2.375 9.785 2.375 10.125 C-0.5 10.3125 -0.5 10.3125 -3.625 10.125 C-5.625 7.125 -5.625 7.125 -5.375 4.5625 C-4.336523 1.18744974 -3.59386412 0.17113639 0 0 Z " fill="#01394F" transform="translate(559.625,451.875)"/>
<path d="M0 0 C1.98 0.99 1.98 0.99 4 2 C3.67 2.33 3.34 2.66 3 3 C2.76518307 5.18292774 2.58636677 7.37203174 2.4375 9.5625 C2.31181641 11.35880859 2.31181641 11.35880859 2.18359375 13.19140625 C2.12300781 14.11824219 2.06242188 15.04507812 2 16 C1.34 15.67 0.68 15.34 0 15 C0 10.05 0 5.1 0 0 Z " fill="#D9FBFB" transform="translate(541,296)"/>
<path d="M0 0 C0.763125 0.825 1.52625 1.65 2.3125 2.5 C6.17356001 5.80283447 9.92836511 5.40334296 14.8046875 5.17578125 C15.52914062 5.11777344 16.25359375 5.05976563 17 5 C17 5.66 17 6.32 17 7 C7.48627741 8.7610915 7.48627741 8.7610915 2.875 6.0625 C1.92625 5.381875 0.9775 4.70125 0 4 C0 2.68 0 1.36 0 0 Z " fill="#024464" transform="translate(503,444)"/>
<path d="M0 0 C0.66 0 1.32 0 2 0 C1.67 0.825 1.34 1.65 1 2.5 C-0.16782809 6.5873983 -0.1458885 9.76923344 0 14 C-0.99 14.495 -0.99 14.495 -2 15 C-3.59472187 11.81055627 -3.38490832 8.47081121 -3 5 C-1.625 2 -1.625 2 0 0 Z " fill="#26BDD6" transform="translate(505,429)"/>
<path d="M0 0 C0.33 0 0.66 0 1 0 C1.13517903 2.75164432 1.23415251 5.49664521 1.3125 8.25 C1.35439453 9.02730469 1.39628906 9.80460937 1.43945312 10.60546875 C1.48727455 12.84351137 1.46976923 14.80959674 1 17 C-1.51953125 19.546875 -1.51953125 19.546875 -4 21 C-3.67 19.68 -3.34 18.36 -3 17 C-2.34 17 -1.68 17 -1 17 C-0.67 11.39 -0.34 5.78 0 0 Z " fill="#002F4A" transform="translate(554,398)"/>
<path d="M0 0 C0.33 0 0.66 0 1 0 C1.33 6.27 1.66 12.54 2 19 C2.66 19.33 3.32 19.66 4 20 C4 20.66 4 21.32 4 22 C2.68 22 1.36 22 0 22 C0 14.74 0 7.48 0 0 Z " fill="#182645" transform="translate(497,603)"/>
<path d="M0 0 C0.33 1.32 0.66 2.64 1 4 C-1.64 5.98 -4.28 7.96 -7 10 C-7.66 9.67 -8.32 9.34 -9 9 C-6.03 6.03 -3.06 3.06 0 0 Z " fill="#25B5CA" transform="translate(555,414)"/>
<path d="M0 0 C0.68359375 1.796875 0.68359375 1.796875 1 4 C-0.21484375 5.703125 -0.21484375 5.703125 -1.9375 7.25 C-2.50339844 7.77078125 -3.06929687 8.2915625 -3.65234375 8.828125 C-4.09707031 9.21484375 -4.54179688 9.6015625 -5 10 C-5.66 9.67 -6.32 9.34 -7 9 C-6.02180976 7.68677212 -5.0424189 6.37443848 -4.0625 5.0625 C-3.51722656 4.33160156 -2.97195313 3.60070312 -2.41015625 2.84765625 C-1 1 -1 1 0 0 Z " fill="#002843" transform="translate(536,405)"/>
<path d="M0 0 C0 3.96130371 -1.34877125 4.82914401 -4 7.6875 C-4.7425 8.49574219 -5.485 9.30398438 -6.25 10.13671875 C-6.8275 10.75160156 -7.405 11.36648438 -8 12 C-8.33 11.01 -8.66 10.02 -9 9 C-6.03 6.03 -3.06 3.06 0 0 Z " fill="#002F47" transform="translate(551,429)"/>
<path d="M0 0 C0.99 0.33 1.98 0.66 3 1 C0.36 3.64 -2.28 6.28 -5 9 C-5.33 8.01 -5.66 7.02 -6 6 C-4.02 4.02 -2.04 2.04 0 0 Z " fill="#26B4C7" transform="translate(546,431)"/>
<path d="M0 0 C0.28875 0.598125 0.5775 1.19625 0.875 1.8125 C2.04742026 4.19327792 2.04742026 4.19327792 4 7 C4.125 9.6875 4.125 9.6875 4 12 C1 10 1 10 0 7 C-0.03954234 4.66700175 -0.04401732 2.33291811 0 0 Z " fill="#22ACC0" transform="translate(524,496)"/>
<path d="M0 0 C0.33 0 0.66 0 1 0 C1.41733821 6.05140408 1.10415132 9.17158669 -3 14 C-3.66 14 -4.32 14 -5 14 C-4.34 12.35 -3.68 10.7 -3 9 C-2.34 9 -1.68 9 -1 9 C-0.67 6.03 -0.34 3.06 0 0 Z " fill="#2BB1C3" transform="translate(525,434)"/>
<path d="M0 0 C0.99 0.33 1.98 0.66 3 1 C9.08568662 1.23294845 9.08568662 1.23294845 15 0 C14.67 0.99 14.34 1.98 14 3 C12.04174127 3.02694851 10.08337774 3.04637218 8.125 3.0625 C7.03445313 3.07410156 5.94390625 3.08570313 4.8203125 3.09765625 C2 3 2 3 0 2 C0 1.34 0 0.68 0 0 Z " fill="#013750" transform="translate(529,510)"/>
<path d="M0 0 C0.99 0.33 1.98 0.66 3 1 C0.71568262 3.35800504 -1.0081024 4.88720897 -4.3359375 5.265625 C-6.56920205 5.251535 -8.77382441 5.17460201 -11 5 C-11 4.67 -11 4.34 -11 4 C-10.37351562 3.87882812 -9.74703125 3.75765625 -9.1015625 3.6328125 C-8.28429687 3.46523438 -7.46703125 3.29765625 -6.625 3.125 C-5.81289063 2.96257812 -5.00078125 2.80015625 -4.1640625 2.6328125 C-1.81326077 2.13341068 -1.81326077 2.13341068 0 0 Z " fill="#2DB0C6" transform="translate(566,464)"/>
<path d="M0 0 C3.63 0 7.26 0 11 0 C11 0.33 11 0.66 11 1 C8.36 1.33 5.72 1.66 3 2 C2.34 3.65 1.68 5.3 1 7 C0.67 7 0.34 7 0 7 C0 4.69 0 2.38 0 0 Z " fill="#030C23" transform="translate(487,724)"/>
<path d="M0 0 C4.2742558 1.5830577 6.26531794 4.50568404 9 8 C8.01 8.495 8.01 8.495 7 9 C4.03595495 6.19195732 1.55500981 3.81684226 0 0 Z " fill="#1E2943" transform="translate(431,515)"/>
<path d="M0 0 C0.33 1.32 0.66 2.64 1 4 C0.071875 4.12375 0.071875 4.12375 -0.875 4.25 C-3.18437567 4.81258459 -3.18437567 4.81258459 -4.25 7.0625 C-4.4975 7.701875 -4.745 8.34125 -5 9 C-5.66 8.67 -6.32 8.34 -7 8 C-4.69 5.36 -2.38 2.72 0 0 Z " fill="#23B0C6" transform="translate(545,424)"/>
<path d="M0 0 C0.66 0.33 1.32 0.66 2 1 C2 3.31 2 5.62 2 8 C2.66 8.33 3.32 8.66 4 9 C0.125 8.125 0.125 8.125 -1 7 C-1.125 4 -1.125 4 -1 1 C-0.67 0.67 -0.34 0.34 0 0 Z " fill="#21B9CC" transform="translate(530,496)"/>
<path d="M0 0 C0.33 0.66 0.66 1.32 1 2 C-0.8125 4.5 -0.8125 4.5 -3 7 C-3.99 7 -4.98 7 -6 7 C-4.60667426 3.63279613 -3.0210714 2.0140476 0 0 Z " fill="#09C6D7" transform="translate(567,460)"/>
<path d="M0 0 C0.99 0.33 1.98 0.66 3 1 C4.39439664 1.06665376 5.79169875 1.08538199 7.1875 1.0625 C8.445625 1.041875 9.70375 1.02125 11 1 C11 1.66 11 2.32 11 3 C7.37 3.33 3.74 3.66 0 4 C0 2.68 0 1.36 0 0 Z " fill="#08162C" transform="translate(643,763)"/>
<path d="M0 0 C0.66 0.33 1.32 0.66 2 1 C-0.64 2.98 -3.28 4.96 -6 7 C-6.66 6.34 -7.32 5.68 -8 5 C-6.71475739 4.13619741 -5.42157581 3.28419631 -4.125 2.4375 C-3.04605469 1.72400391 -3.04605469 1.72400391 -1.9453125 0.99609375 C-1.30335938 0.66738281 -0.66140625 0.33867188 0 0 Z " fill="#11182C" transform="translate(529,591)"/>
<path d="M0 0 C0.33 0 0.66 0 1 0 C1.33 1.65 1.66 3.3 2 5 C3.32 5.33 4.64 5.66 6 6 C6 6.66 6 7.32 6 8 C3.03 7.505 3.03 7.505 0 7 C-1.04449911 3.86650268 -0.93423645 3.01031744 0 0 Z " fill="#303B54" transform="translate(453,461)"/>
<path d="M0 0 C0.33 0.99 0.66 1.98 1 3 C-1.31 4.98 -3.62 6.96 -6 9 C-6.66 8.67 -7.32 8.34 -8 8 C-5.36 5.36 -2.72 2.72 0 0 Z " fill="#2BAFC4" transform="translate(520,411)"/>
<path d="M0 0 C2.6855594 2.6855594 3.06049974 5.37621328 4 9 C3.01 9.495 3.01 9.495 2 10 C1.01 7.03 0.02 4.06 -1 1 C-0.67 0.67 -0.34 0.34 0 0 Z " fill="#172034" transform="translate(432,749)"/>
<path d="M0 0 C2.31 0 4.62 0 7 0 C2.25 3.875 2.25 3.875 0 5 C0 3.35 0 1.7 0 0 Z " fill="#071025" transform="translate(668,724)"/>
</svg>
